<?xml version="1.0" encoding="UTF-8" standalone="no"?>
<!-- Created with Inkscape (http://www.inkscape.org/) -->

<svg
   version="1.1"
   id="svg1"
   width="1600"
   height="1600"
   viewBox="0 0 1600 1600"
   sodipodi:docname="logo.svg"
   inkscape:version="1.3 (0e150ed6c4, 2023-07-21)"
   inkscape:export-filename="logo.png"
   inkscape:export-xdpi="96"
   inkscape:export-ydpi="96"
   xmlns:inkscape="http://www.inkscape.org/namespaces/inkscape"
   xmlns:sodipodi="http://sodipodi.sourceforge.net/DTD/sodipodi-0.dtd"
   xmlns="http://www.w3.org/2000/svg"
   xmlns:svg="http://www.w3.org/2000/svg">
  <defs
     id="defs1" />
  <sodipodi:namedview
     id="namedview1"
     pagecolor="#ffffff"
     bordercolor="#000000"
     borderopacity="0.25"
     inkscape:showpageshadow="2"
     inkscape:pageopacity="0.0"
     inkscape:pagecheckerboard="0"
     inkscape:deskcolor="#d1d1d1"
     inkscape:zoom="0.44612873"
     inkscape:cx="511.06325"
     inkscape:cy="1040.0586"
     inkscape:window-width="2366"
     inkscape:window-height="1796"
     inkscape:window-x="1159"
     inkscape:window-y="71"
     inkscape:window-maximized="0"
     inkscape:current-layer="g1" />
  <g
     inkscape:groupmode="layer"
     inkscape:label="Image"
     id="g1"
     transform="translate(-1.4221478,-0.24503461)">
    <g
       id="g2"
       style="display:none;fill:#1a1a1a;fill-opacity:1"
       transform="matrix(2.2587754,0,0,2.203982,-734.06335,-2362.0649)"
       inkscape:label="clock"
       sodipodi:insensitive="true">
      <path
         style="display:inline;fill:#0000ff;fill-opacity:1;stroke-width:0.972324"
         d="m 794.08371,1959.5093 c -45.08918,-5.8404 -78.72531,-21.9725 -108.78625,-52.1745 -18.77192,-18.8601 -29.35934,-34.3455 -39.11214,-57.2061 -9.81047,-22.9962 -14.2284,-44.8052 -14.28086,-70.4983 -0.0512,-25.0865 3.3241,-44.2661 11.62299,-66.0448 8.40565,-22.0593 18.48393,-38.8647 33.47054,-55.8121 13.35446,-15.1016 21.07079,-21.3175 49.52798,-39.8973 8.94368,-5.8394 25.84096,-12.1664 46.70839,-17.4894 3.17338,-0.8094 3.35685,-1.1115 4.66419,-7.6787 1.72219,-8.6516 5.33699,-15.4172 10.54848,-19.7427 3.85276,-3.1978 12.26614,-7.1542 15.21365,-7.1542 1.79059,0 3.05117,4.4277 2.68994,9.4481 -0.24037,3.3399 -0.70149,4.1697 -2.58242,4.648 -4.98146,1.2663 -10.17083,7.4701 -12.17783,14.5583 l -0.80303,2.8364 9.37708,-0.7673 c 11.67564,-0.9553 13.21147,-0.9587 23.54326,-0.054 4.60323,0.4032 8.60148,0.3529 8.88503,-0.1118 0.79028,-1.2951 -3.66581,-10.2369 -6.25798,-12.5577 -1.2658,-1.1333 -3.73257,-2.8904 -5.48153,-3.9046 -3.10392,-1.7999 -3.17319,-1.9846 -2.89833,-7.7251 l 0.28162,-5.8812 3.38139,0.2789 c 7.79594,0.6432 17.88968,8.4242 21.42275,16.5143 1.05141,2.4078 2.44822,7.0418 3.10392,10.2977 l 1.19218,5.92 8.63655,2.2415 c 16.37153,4.249 32.29845,10.613 42.09047,16.8182 23.18976,14.6956 34.73817,23.903 46.62685,37.1752 69.08,77.1192 61.5765,195.3607 -16.60349,261.6381 -27.97192,23.7134 -56.83594,36.4891 -93.90978,41.5662 -9.17294,1.2561 -32.80122,1.7033 -40.09362,0.7587 z m 46.8564,-29.5866 c 45.13198,-9.1395 82.45604,-37.185 104.94479,-78.8561 12.95807,-24.011 18.11246,-44.9559 18.06155,-73.3933 -0.0444,-25.0891 -4.68902,-44.9514 -15.78751,-67.5219 -31.06686,-63.1789 -98.63996,-96.0833 -168.5669,-82.0827 -12.36438,2.4755 -24.26436,6.7403 -36.71222,13.1569 -53.18665,27.4165 -85.62953,83.0836 -83.22923,142.8084 1.95425,48.6285 25.15947,91.8689 64.87311,120.8842 17.39242,12.7072 47.38592,24.1594 70.52612,26.9285 10.43188,1.2483 35.39281,0.2018 45.89029,-1.924 z m -31.85955,-8.8654 c -1.77948,-1.8025 -1.95435,-3.2315 -1.95435,-15.9733 0,-14.74 0.43359,-16.3422 4.42247,-16.3422 3.98434,0 4.73424,2.4037 5.09257,16.3233 0.34915,13.5619 0.0435,14.9089 -3.85826,17.0242 -1.3172,0.714 -2.22979,0.4596 -3.70243,-1.032 z m -68.94943,-18.4478 c -2.41421,-2.7021 -2.03076,-4.3093 3.37115,-14.1293 8.46063,-15.3804 10.96527,-17.7079 14.83619,-13.7871 2.20321,2.2317 1.40984,4.6769 -5.4793,16.8881 -7.44843,13.2025 -9.32926,14.8322 -12.72804,11.0283 z m 138.32404,0.7769 c -2.36378,-1.3971 -14.32839,-22.9662 -14.32839,-25.8303 0,-2.2968 2.32166,-4.4715 4.77345,-4.4715 0.56982,0 1.9815,1.1014 3.13716,2.4477 2.68019,3.1223 13.34383,22.073 13.34383,23.7138 0,1.3515 -3.42148,5.1711 -4.58903,5.1232 -0.39852,-0.017 -1.45023,-0.4587 -2.33702,-0.9829 z m -189.52793,-52.6415 c -2.89891,-3.2447 -1.93058,-5.3221 4.41146,-9.4641 8.68785,-5.674 17.36044,-10.1948 19.63998,-10.2378 4.15659,-0.078 5.84091,5.1133 2.6085,8.0404 -2.24486,2.0328 -22.6016,13.451 -23.98082,13.451 -0.59415,0 -1.79967,-0.8052 -2.67912,-1.7895 z m 229.78482,-4.9415 c -8.65269,-4.9858 -11.82578,-7.3413 -12.50979,-9.2864 -1.04562,-2.9738 0.69135,-5.5052 3.94821,-5.7537 2.21346,-0.1689 25.42669,13.672 26.15524,15.5951 0.70101,1.8504 -2.34891,6.1808 -4.33195,6.1507 -0.91761,-0.014 -6.88538,-3.0315 -13.26171,-6.7057 z m -182.86312,-20.2353 c -2.1296,-1.5109 -2.82384,-5.3378 -1.56925,-8.6495 0.5444,-1.4369 16.33298,-11.0282 47.24458,-28.6999 l 13.52555,-7.7324 1.17837,-4.8316 c 1.57969,-6.4771 6.88402,-11.6324 12.91043,-12.5478 l 4.31408,-0.6552 16.88356,-29.9674 c 9.28597,-16.4821 17.67597,-31.0018 18.6444,-32.2662 1.21102,-1.5811 2.74791,-2.2989 4.92234,-2.2989 3.95661,0 6.35933,2.5628 6.35933,6.7832 0,3.2628 -1.08195,5.3423 -24.36523,46.8279 l -10.59147,18.8714 1.14184,4.8209 c 1.43072,6.041 0.24472,10.1904 -4.12317,14.426 -4.31339,4.1826 -9.77424,5.5315 -15.4228,3.8096 l -4.3819,-1.3358 -14.36211,8.4612 c -26.6867,15.7221 -46.31663,26.5078 -48.24402,26.5078 -1.05451,0 -2.88365,-0.6855 -4.06453,-1.5233 z m -65.87661,-44.4055 c -3.26352,-6.1766 0.1681,-7.7795 15.90693,-7.43 15.89571,0.3532 14.72005,0.1625 16.00624,2.5966 0.7981,1.5105 0.81308,2.7176 0.0551,4.4036 -1.03413,2.299 -1.1976,2.3226 -16.00625,2.3226 -13.80321,0 -15.03887,-0.1465 -15.9616,-1.8928 z m 251.63449,-0.069 c -1.44782,-1.6205 -1.56133,-2.3854 -0.65348,-4.4036 0.6043,-1.3433 1.65147,-2.4929 2.32707,-2.5544 5.62238,-0.5125 26.08993,-0.336 27.62219,0.2382 2.46889,0.925 3.4837,4.117 2.12592,6.6868 -0.98727,1.8687 -1.95396,1.9941 -15.36155,1.9941 -13.09062,0 -14.45699,-0.1668 -16.06015,-1.9611 z m -220.61034,-61.1748 c -13.17602,-7.532 -13.66806,-7.9213 -13.66806,-10.8108 0,-2.6803 3.41395,-5.429 5.66605,-4.562 3.18305,1.2255 19.99995,11.2957 22.10965,13.2396 3.43395,3.1642 2.37779,8.6032 -1.64239,8.4575 -0.82361,-0.03 -6.43304,-2.8756 -12.46525,-6.3241 z m 206.27199,4.5889 c -3.69315,-4.1336 -1.06195,-6.9203 14.57466,-15.4362 l 9.89394,-5.3882 2.36137,2.3918 c 4.27031,4.3255 2.62908,5.9937 -16.24477,16.513 -7.59972,4.2356 -8.38816,4.3787 -10.5852,1.9196 z M 752.09642,1682.457 c -2.2977,-1.9227 -13.5641,-22.1031 -13.5641,-24.296 0,-2.87 2.00052,-5.2569 4.40604,-5.2569 2.64444,0 6.31818,5.1713 13.52643,19.0405 2.96017,5.6954 3.58022,7.6869 2.79255,8.9689 -1.67515,2.7265 -4.91307,3.4244 -7.16092,1.5435 z m 113.18969,-0.3913 c -2.06564,-2.0923 -1.25653,-4.8849 4.31939,-14.9089 8.20759,-14.7549 11.01569,-17.0618 14.40017,-11.8297 1.51448,2.3412 1.39719,2.7453 -3.4807,11.9876 -2.77641,5.2605 -6.10235,10.9958 -7.39085,12.745 -2.4403,3.3125 -5.72836,4.153 -7.84801,2.006 z M 809.2734,1667.038 c -2.04797,-1.453 -2.14719,-2.1675 -2.14719,-15.4615 0,-9.536 0.36616,-14.3091 1.15934,-15.1125 1.83706,-1.8607 6.36822,-1.4267 7.50166,0.7186 0.5501,1.041 1.00012,7.6464 1.00012,14.6787 0,11.481 -0.19719,12.9855 -1.93223,14.7429 -2.32591,2.3559 -2.81843,2.3942 -5.5817,0.4338 z"
         id="path1"
         inkscape:label="path1"
         sodipodi:nodetypes="sssssssssssssscsssssscssscssssssssscsssssssssssssssssssssssssssssssssssssssscsscssssscssscsssssscsssssssssssssscsssscssssssssssssssssssssss" />
    </g>
    <g
       id="g3"
       transform="translate(-231.22665,-46.187395)"
       style="display:inline;fill:#999999;fill-opacity:1"
       inkscape:label="dog"
       sodipodi:insensitive="true">
      <path
         style="display:none;fill:#000000;stroke-width:0.999998"
         d="m 646.23201,1533.1273 c -56.79678,-1.4126 -99.16651,-5.3142 -137.03292,-12.6188 -23.64609,-4.5614 -36.9825,-8.3067 -49.26773,-13.8357 -12.3578,-5.5618 -17.92286,-10.8365 -17.98894,-17.0506 -0.0645,-6.0673 4.18721,-10.7061 14.64086,-15.9734 10.58833,-5.3353 23.28349,-9.3997 42.16122,-13.4986 16.82208,-3.6524 26.54214,-5.1558 62.38828,-9.6495 11.26574,-1.4123 32.55071,-2.9425 58.83636,-4.2299 3.99744,-0.1958 4.22832,-0.2689 5.87524,-1.8571 2.16945,-2.0925 6.72257,-3.7288 13.28743,-4.775 4.85311,-0.7735 15.45099,-1.7303 19.16389,-1.7303 2.25542,0 3.84338,1.0709 3.38831,2.2851 -0.30263,0.8078 -0.8835,1.0084 -3.25296,1.1242 -6.27502,0.3062 -12.81162,1.8067 -15.33981,3.5209 l -1.01155,0.6861 11.81186,-0.1857 c 14.70731,-0.231 16.64181,-0.2318 29.65628,-0.013 5.79863,0.098 10.83502,0.085 11.19195,-0.027 0.99568,-0.3132 -4.61734,-2.4759 -7.88269,-3.0372 -1.59446,-0.2741 -4.7019,-0.6991 -6.90489,-0.9444 -3.90985,-0.4353 -3.99705,-0.4799 -3.6507,-1.8683 l 0.35466,-1.4224 4.25942,0.067 c 9.82005,0.1556 22.53477,2.0375 26.98518,3.9941 1.32426,0.5824 3.08387,1.7031 3.90988,2.4906 l 1.50154,1.4318 10.87922,0.5421 c 20.62223,1.0277 40.68508,2.5668 53.01925,4.0676 29.2113,3.5543 43.75817,5.7811 58.73374,8.9911 87.01682,18.6519 77.56499,47.2495 -20.91469,63.2792 -35.23501,5.7353 -71.59356,8.8252 -118.29364,10.0531 -11.55473,0.3038 -41.31832,0.412 -50.50405,0.1835 z m 59.02277,-7.1558 c 56.85088,-2.2104 103.8659,-8.9934 132.19415,-19.0719 16.32263,-5.8072 22.81528,-10.873 22.75096,-17.7508 -0.057,-6.0679 -5.90632,-10.8718 -19.88651,-16.3306 -39.13349,-15.2803 -124.25225,-23.2385 -212.33593,-19.8524 -15.57456,0.5988 -30.56459,1.6302 -46.24464,3.1822 -66.99689,6.6309 -107.86342,20.0944 -104.83973,34.5393 2.46151,11.7611 31.6922,22.2191 81.71742,29.2367 21.90853,3.0734 59.68978,5.8431 88.83855,6.5129 13.14069,0.3019 44.58248,0.049 57.80573,-0.4654 z m -40.13204,-2.1441 c -2.2414,-0.4359 -2.46172,-0.7816 -2.46172,-3.8633 0,-3.5649 0.54612,-3.9524 5.57077,-3.9524 5.01897,0 5.96346,0.5813 6.41487,3.9478 0.43983,3.2801 0.0548,3.6059 -4.86002,4.1175 -1.6591,0.1726 -2.80887,0.1111 -4.6639,-0.2496 z m -86.85222,-4.4618 c -3.04118,-0.6535 -2.55826,-1.0422 4.24642,-3.4173 10.65762,-3.7198 13.81242,-4.2827 18.6883,-3.3345 2.77552,0.5398 1.77616,1.1312 -6.90184,4.0846 -9.38227,3.1931 -11.75171,3.5872 -16.03288,2.6672 z m 174.24041,0.188 c -2.97772,-0.338 -18.04881,-5.5546 -18.04881,-6.2473 0,-0.5555 2.92449,-1.0815 6.01278,-1.0815 0.71782,0 2.4958,0.2664 3.95155,0.592 3.37631,0.7552 16.80867,5.3385 16.80867,5.7354 0,0.3268 -4.30989,1.2506 -5.78053,1.239 -0.50205,0 -1.82678,-0.1109 -2.94366,-0.2376 z m -238.73961,-12.7318 c -3.65153,-0.7847 -2.43184,-1.2872 5.55695,-2.2889 10.9438,-1.3724 21.86809,-2.4658 24.73955,-2.4762 5.23582,-0.019 7.35751,1.2368 3.28589,1.9447 -2.82777,0.4916 -28.47015,3.2532 -30.2077,3.2532 -0.74834,0 -2.267,-0.1948 -3.37469,-0.4328 z m 289.4489,-1.1951 c -10.89902,-1.2059 -14.89604,-1.7756 -15.75786,-2.246 -1.31697,-0.7193 0.87101,-1.3315 4.97353,-1.3916 2.78825,-0.041 32.02869,3.3067 32.9466,3.7718 0.88304,0.4475 -2.95887,1.4948 -5.45673,1.4876 -1.15585,0 -8.67318,-0.7332 -16.70554,-1.6218 z m -230.34386,-4.8941 c -2.68245,-0.3655 -3.55723,-1.291 -1.97658,-2.092 0.68576,-0.3475 20.57361,-2.6672 59.51154,-6.9412 l 17.03773,-1.8702 1.48431,-1.1685 c 1.98977,-1.5666 8.67129,-2.8134 16.26275,-3.0348 l 5.43419,-0.1585 21.26753,-7.2478 c 11.69684,-3.9864 22.26555,-7.4981 23.48525,-7.8038 1.52561,-0.3824 3.46154,-0.5561 6.2002,-0.5561 4.9843,0 8.01082,0.6199 8.01082,1.6406 0,0.7891 -1.36276,1.2921 -30.69176,11.3257 l -13.34156,4.5642 1.43818,1.166 c 1.80238,1.461 0.30853,2.4646 -5.19356,3.489 -5.43339,1.0116 -12.31205,1.3378 -19.4273,0.9213 l -5.51997,-0.323 -18.09095,2.0464 c -33.61612,3.8025 -58.34308,6.4111 -60.77105,6.4111 -1.32842,0 -3.63242,-0.1658 -5.11977,-0.3684 z m -82.98181,-10.7399 c -4.11087,-1.4938 0.21199,-1.8815 20.03724,-1.7969 20.02321,0.085 18.54237,0.039 20.16243,0.628 1.00546,0.3653 1.02436,0.6572 0.0691,1.065 -1.3028,0.556 -1.50869,0.5618 -20.16243,0.5618 -17.38731,0 -18.94377,-0.036 -20.10615,-0.4579 z m 316.97209,-0.017 c -1.8236,-0.392 -1.96634,-0.5769 -0.82301,-1.0651 0.76154,-0.3248 2.08042,-0.6029 2.93131,-0.6178 7.08229,-0.124 32.86421,-0.081 34.79443,0.058 3.10984,0.2238 4.38832,0.9958 2.67767,1.6173 -1.24346,0.4519 -2.4611,0.4823 -19.34978,0.4823 -16.48993,0 -18.21104,-0.04 -20.23062,-0.4743 z m -277.8923,-14.7956 c -16.5971,-1.8217 -17.21679,-1.9159 -17.21679,-2.6147 0,-0.6482 4.30028,-1.3131 7.1372,-1.1033 4.00924,0.2964 25.19299,2.7319 27.85023,3.202 4.32569,0.7653 2.99545,2.0808 -2.06864,2.0456 -1.03757,-0.01 -8.10343,-0.6955 -15.702,-1.5296 z m 259.83129,1.1098 c -4.65209,-0.9996 -1.33772,-1.6736 18.35885,-3.7333 l 12.46313,-1.3032 2.97439,0.5785 c 5.3791,1.0461 3.31168,1.4496 -20.46302,3.9938 -9.57286,1.0244 -10.5657,1.059 -13.33335,0.4642 z m -195.46299,-10.1702 c -2.89442,-0.465 -17.08609,-5.3458 -17.08609,-5.8762 0,-0.6942 2.51984,-1.2714 5.55003,-1.2714 3.33102,0 7.95873,1.2507 17.03855,4.6051 3.72876,1.3775 4.50984,1.8591 3.5178,2.1691 -2.11032,0.6595 -6.18886,0.8283 -9.02029,0.3734 z m 142.5795,-0.095 c -2.60178,-0.5061 -1.58248,-1.1815 5.44088,-3.6059 10.339,-3.5686 13.87627,-4.1266 18.13943,-2.8611 1.90789,0.5662 1.76008,0.664 -4.38451,2.8993 -3.49719,1.2723 -7.68668,2.6594 -9.30989,3.0824 -3.07388,0.8012 -7.21569,1.0045 -9.88591,0.4853 z m -70.55652,-3.6346 c -2.5796,-0.3514 -2.7046,-0.5242 -2.7046,-3.7395 0,-2.3064 0.46136,-3.4608 1.46033,-3.6551 2.31417,-0.45 8.02172,-0.345 9.44952,0.1738 0.69288,0.2518 1.25973,1.8494 1.25973,3.5502 0,2.7768 -0.24817,3.1406 -2.43388,3.5657 -2.9298,0.5697 -3.55031,0.579 -7.0311,0.1049 z m 6.42258,-23.0625 c -0.41361,-0.1302 -0.17276,-0.2367 0.53678,-0.2367 0.70852,0 1.28878,0.1065 1.28878,0.2367 0,0.1301 -0.24146,0.2366 -0.53677,0.2366 -0.29511,0 -0.87497,-0.1065 -1.28879,-0.2366 z M 519.77765,1422.559 c -0.35304,-0.1112 0.90709,-0.6772 2.80032,-1.2578 14.49005,-4.4436 36.75262,-13.5098 45.2341,-18.421 1.23614,-0.716 3.09565,-1.7567 4.13199,-2.3126 6.18478,-3.3181 13.26792,-9.9841 15.39876,-14.4914 1.70442,-3.6053 0.68901,-11.0702 -1.92251,-14.1337 -2.52615,-2.9637 -9.9867,-7.2734 -17.53426,-10.1292 -10.37593,-3.9258 -17.04973,-5.6855 -36.90404,-9.7302 -17.68508,-3.6028 -21.82744,-4.6972 -26.06533,-6.8871 -3.80802,-1.9675 -5.12892,-5.0919 -2.93832,-6.9502 3.91065,-3.3168 16.45949,-6.9683 32.71635,-9.5198 25.46025,-3.9959 54.09379,-6.1741 98.15068,-7.4666 24.80724,-0.7277 56.18034,-0.5079 83.36212,0.5841 47.68769,1.9159 83.83728,6.4669 99.54983,12.533 6.34516,2.4498 8.28457,6.495 4.59015,9.5749 -3.71154,3.0941 -17.3432,6.7331 -34.28464,9.1523 -8.77552,1.2532 -13.20249,2.4426 -18.81272,5.0547 -11.5503,5.3779 -13.89592,8.1506 -13.90748,16.439 -0.0206,5.6606 0.31526,6.7415 2.8288,9.467 3.63296,3.9392 9.83743,8.4443 15.97189,11.5972 8.28267,4.2571 22.65211,10.2874 30.4546,12.7805 2.03668,0.6508 4.36249,1.4763 5.16807,1.8342 0.80558,0.358 1.80871,0.6509 2.22964,0.6509 0.42109,0 1.75327,0.426 2.96077,0.9467 1.20703,0.5207 2.65929,0.9467 3.22708,0.9467 0.56747,0 1.03212,0.093 1.03212,0.2071 0,0.1139 5.20642,1.7204 11.56995,3.57 10.6701,3.1014 12.66053,3.9355 8.77521,3.6774 -0.81541,-0.054 -6.41122,-0.3219 -12.43478,-0.595 -14.36675,-0.6514 -24.20022,-1.311 -53.54665,-3.5919 -28.96241,-2.2511 -31.08449,-2.3956 -44.42703,-3.0243 -15.41519,-0.7266 -21.55249,-0.836 -46.23674,-0.8244 -18.77589,0.01 -24.63548,0.1004 -35.29209,0.5517 -24.94197,1.0563 -31.64646,1.5864 -74.29302,5.8741 -7.72927,0.7771 -18.13425,1.7169 -23.12233,2.0884 -4.98807,0.3715 -9.80684,0.7839 -10.70904,0.9162 -0.90201,0.1324 -2.81861,0.2736 -4.25944,0.314 -1.4404,0.04 -4.68422,0.2316 -7.20772,0.4252 -5.36956,0.4118 -5.41794,0.413 -6.25429,0.1499 z m -65.88645,-17.645 c -11.40662,-0.9662 -13.83604,-3.6487 -4.87968,-5.388 6.89211,-1.3384 18.83019,-0.9872 24.69974,0.7266 5.39518,1.5753 2.34566,3.8188 -6.27198,4.6142 -4.94112,0.4559 -8.57374,0.4686 -13.54808,0.047 z m 446.68627,0.1653 c -4.48178,-0.2159 -10.13241,-1.2389 -11.59086,-2.0985 -1.96111,-1.1556 0.34473,-2.751 5.10075,-3.5293 13.12819,-2.1484 32.26585,0.5322 25.89772,3.6274 -2.87871,1.3993 -12.11698,2.3515 -19.40761,2.0004 z m -658.12065,-2.4381 c -5.72595,-0.3346 -31.00523,-4.4739 -48.52318,-7.9453 -25.20226,-4.9943 -46.88967,-10.2889 -58.574,-14.3 -0.94802,-0.3254 -3.6004,-1.2307 -5.89414,-2.0117 -7.35106,-2.5031 -22.15458,-8.4604 -30.582318,-12.3072 -6.426064,-2.9332 -22.696499,-12.6039 -27.619128,-16.416 -10.66429,-8.2587 -17.296461,-16.5656 -20.623185,-25.8307 -2.274622,-6.3349 -2.667194,-7.9099 -2.979366,-11.9522 -0.69695,-9.0257 4.298443,-22.9178 10.723286,-29.8213 2.235317,-2.4017 5.994028,-5.6626 7.638792,-6.6269 1.121428,-0.6575 2.047632,-1.9741 2.084133,-2.9628 0.05735,-1.5461 -0.455846,-1.9857 -3.914204,-3.3524 -2.18912,-0.8651 -5.853982,-1.8929 -8.144303,-2.284 -9.440124,-1.612 -28.17749,-3.2285 -45.757037,-3.9477 -9.0480112,-0.3702 -14.3441228,-0.8343 -29.715983,-2.6038 -24.826321,-2.858 -44.282309,-5.9098 -57.170572,-8.9678 -7.123125,-1.69 -16.550464,-5.1623 -19.017395,-7.0045 -0.784463,-0.5857 -1.836264,-3.3016 -2.33753,-6.0352 -1.160401,-6.3295 -0.639633,-5.8714 -18.56773,-16.3307 -14.4815,-8.4484 -40.63775,-21.4974 -57.40363,-28.6378 -1.83382,-0.781 -4.181,-1.7928 -5.21602,-2.2484 -1.03492,-0.4556 -2.85049,-1.2544 -4.03448,-1.7751 -12.3617,-5.436 -45.10193,-18.441 -62.25372,-24.7285 -3.18858,-1.1688 -6.9333,-2.7434 -14.92633,-6.2761 -3.37645,-1.4923 -9.98129,-4.885 -16.35671,-8.402 -12.16541,-6.7109 -22.37122,-15.3434 -26.86207,-22.721 -0.75283,-1.2366 -1.89458,-3.0472 -2.5374,-4.0235 -1.53239,-2.3274 -1.49028,-12.0894 0.061,-14.137 0.66749,-0.8811 2.01857,-2.667 3.00238,-3.9687 3.59137,-4.7519 8.35751,-7.8876 17.11223,-11.2583 17.3128,-6.6657 45.02416,-10.8524 80.6996,-12.1923 18.15857,-0.682 55.85652,-0.1987 65.87954,0.8445 1.26918,0.1321 3.26597,0.2402 4.4373,0.2402 1.17145,0 4.35626,0.1988 7.07763,0.4418 2.72126,0.243 7.9598,0.6824 11.64111,0.9764 12.30851,0.9832 28.475403,2.6516 41.985302,4.3328 7.362644,0.9162 13.660433,1.7282 13.995101,1.8045 0.334669,0.076 6.084821,0.9289 12.778128,1.8945 6.693307,0.9656 15.729278,2.3487 20.079921,3.0735 13.755962,2.2917 48.994157,8.6616 56.588859,10.2294 4.015991,0.829 15.048012,3.1047 24.515638,5.057 28.300521,5.8359 66.417691,14.3083 107.542941,23.9039 6.1369,1.4319 13.50891,3.1359 16.38243,3.7868 2.87336,0.6508 7.34119,1.6732 9.92835,2.2719 9.48867,2.1958 26.95247,6.0926 41.2618,9.2069 8.07431,1.7573 22.04532,4.8039 31.04661,6.7703 48.96615,10.6966 118.03655,24.7077 121.80125,24.7077 1.31301,0 3.94833,-0.157 5.8563,-0.3489 3.52675,-0.3547 14.53616,-1.1746 35.35292,-2.6328 6.35864,-0.4454 12.65646,-0.91 13.99512,-1.0324 1.33866,-0.1224 6.85262,-0.4863 12.25327,-0.8086 9.03138,-0.5391 10.79271,-0.5696 21.95134,-0.3811 19.37019,0.3272 34.88072,1.6526 48.31937,4.1289 12.27607,2.2621 20.38256,5.5053 25.21189,10.0869 3.33934,3.1682 3.61433,9.8818 0.60019,14.6556 -4.16737,6.5998 -20.04659,18.3215 -30.84101,22.7657 -6.40531,2.6372 -13.87562,6.3701 -18.12367,9.0562 -9.92066,6.2729 -11.61004,7.5271 -16.27149,12.0816 -5.58603,5.4577 -6.41201,14.5887 -1.74487,19.2891 4.96367,4.999 8.44101,6.9563 23.76742,13.3784 2.71435,1.1375 5.98864,2.6665 7.27602,3.3978 1.28695,0.7312 4.56998,2.5463 7.29531,4.0334 9.4162,5.1382 13.68783,9.237 13.65063,13.0984 -0.0265,2.8383 -0.34226,3.3792 -2.14546,3.6867 -0.62905,0.1073 -9.08431,0.7593 -18.78973,1.449 -28.45325,2.0219 -64.60274,5.3797 -84.57885,7.8563 -37.61372,4.6632 -51.0967,6.7418 -77.50025,11.9477 -21.58966,4.2567 -31.06253,6.608 -49.92391,12.3919 -9.58456,2.9391 -25.30495,8.7355 -25.30495,9.3303 0,0.068 -1.30179,0.6851 -2.89272,1.3724 -6.39966,2.7644 -20.56112,11.7071 -23.71693,14.9767 -2.24898,2.33 -3.71261,3.9102 -5.59026,6.0353 -5.96155,6.747 -7.97709,19.2102 -3.80082,23.5018 1.11474,1.1454 4.47914,3.3796 7.47676,4.9648 5.00211,2.6451 5.83633,3.5184 3.31007,3.4643 -0.52295,-0.011 -2.47813,-0.1095 -4.34459,-0.2186 z m 21.60536,-80.1162 c 32.92744,-1.6643 58.8977,-5.7406 74.0948,-11.6299 7.9715,-3.0892 10.96389,-5.9 10.79607,-10.1407 -0.10123,-2.5595 -0.64757,-3.4269 -3.24894,-5.1588 -16.32862,-10.8711 -69.47993,-17.6166 -125.3779,-15.9119 -15.14638,0.4619 -22.87411,0.963 -35.93239,2.33 -21.16664,2.2157 -37.22926,5.4263 -47.58003,9.5103 -10.22105,4.0327 -13.60031,7.8972 -10.8821,12.4444 1.66226,2.7808 4.30563,4.4603 11.33115,7.1998 6.37946,2.4875 9.96669,3.4771 19.31056,5.3274 14.65823,2.9027 29.35723,4.5931 50.59705,5.819 20.28094,1.1705 36.69537,1.2312 56.89173,0.2104 z m -47.86174,-5.6942 c -8.56623,-0.4482 -23.42937,-1.968 -31.80662,-3.2525 -9.45714,-1.4501 -20.89612,-4.6735 -25.1601,-7.0901 -3.10498,-1.7596 -3.43577,-2.2545 -3.4371,-5.1421 -10e-4,-2.8727 0.33783,-3.3873 3.36102,-5.0987 5.74177,-3.2504 17.19753,-6.1776 31.45805,-8.0383 28.50205,-3.719 63.13881,-3.8487 90.40662,-0.3385 14.9386,1.923 23.86783,3.8449 29.82574,6.4195 6.20348,2.6805 7.7417,4.0993 7.7791,7.1743 0.0293,2.451 -0.41087,3.1037 -3.21584,4.7644 -8.5953,5.0889 -30.28734,9.039 -57.68,10.5036 -10.65988,0.5701 -31.56856,0.6195 -41.53087,0.098 z m 48.47438,-19.5029 c 13.56721,-1.8788 7.77776,-5.9931 -8.89552,-6.3217 -10.27252,-0.2025 -19.05598,1.3948 -19.05598,3.4653 0,2.759 16.48769,4.444 27.9515,2.8564 z m -208.460235,-59.686 c 15.021111,-1.0871 38.161812,-4.3754 60.029205,-8.5301 12.33845,-2.3443 14.37737,-2.8138 22.91582,-5.2773 7.75463,-2.2374 11.99514,-3.8246 17.11212,-6.4052 8.35873,-4.2153 11.06684,-7.2908 11.07742,-12.58 0.0163,-7.6028 -9.45473,-15.9155 -29.60036,-25.9833 -3.94686,-1.9725 -6.42155,-3.0916 -15.17165,-6.8614 -3.82203,-1.6465 -14.26564,-5.662 -20.93523,-8.0493 -11.688302,-4.1836 -16.930138,-6.0127 -20.687281,-7.2186 -57.686826,-18.5151 -111.698634,-32.877 -161.119947,-42.8423 -16.685076,-3.3644 -23.880382,-4.6259 -38.550882,-6.759 -17.43925,-2.5356 -21.77199,-3.034 -36.19266,-4.1633 -7.86588,-0.616 -11.01805,-0.7342 -19.77105,-0.7413 -15.06775,-0.012 -21.35776,0.667 -34.80644,3.7589 -2.78292,0.6398 -6.20649,1.3987 -7.60785,1.6863 -5.65753,1.1613 -19.5818,4.6703 -19.5818,4.9348 0,0.1555 -0.78056,0.4088 -1.73455,0.5628 -2.64739,0.4273 -10.324,4.1613 -12.92429,6.2866 -3.7071,3.0298 -3.195,8.1904 1.17437,11.8338 3.64009,3.0354 13.51329,7.6338 24.31194,11.3233 3.75017,1.2813 15.40784,4.5606 25.90588,7.2873 37.16988,9.6543 55.77911,15.7043 71.6107,23.2811 3.15634,1.5106 9.9577,5.9164 14.432,9.3487 22.838522,17.5201 29.20337,21.2866 52.992972,31.3597 2.152096,0.9112 7.423003,3.1478 11.71316,4.9702 4.290316,1.8224 10.136979,4.0887 12.992696,5.0362 2.855606,0.9475 5.19217,1.765 5.19217,1.8168 0,0.1459 11.80126,3.8522 17.863457,5.6103 20.7520787,6.0181 44.092836,8.143 69.36008,6.3143 z M 1097.7654,1395.4598 c -2.1437,-0.3049 -2.1585,-0.3921 -0.3018,-1.8342 1.0719,-0.8328 2.313,-2.0467 2.7574,-2.6975 0.4447,-0.6509 0.97,-1.2366 1.1673,-1.3018 1.19,-0.3926 2.391,-4.9642 2.2071,-8.402 -0.3488,-6.5061 -8.4522,-15.7567 -20.6286,-23.5493 -12.2646,-7.8485 -33.7,-16.6641 -53.8082,-22.1292 -33.21351,-9.0268 -67.4739,-15.3343 -113.97738,-20.9837 -18.30894,-2.2242 -50.58034,-5.2931 -70.58409,-6.7123 -3.34668,-0.2374 -6.63238,-0.5078 -7.30155,-0.6009 -3.47897,-0.4838 -34.48631,-2.2632 -59.34873,-3.4057 -9.21547,-0.4235 -17.02493,-0.8225 -17.35461,-0.8866 -1.65853,-0.3225 -3.57861,-5.7966 -3.43017,-9.7787 0.25712,-6.8926 3.37615,-10.0509 14.23795,-14.4157 8.02555,-3.2251 8.48925,-3.4679 12.27318,-6.4254 12.66164,-9.8964 13.63135,-22.7974 2.50309,-33.3061 -3.63534,-3.4329 -10.44325,-8.3005 -14.5266,-10.3864 -1.611,-0.823 -8.40656,-3.6857 -15.10103,-6.3616 -17.17575,-6.8653 -27.88783,-13.3426 -33.30527,-20.1389 -3.89783,-4.8901 -3.94124,-13.0069 -0.0871,-16.3272 5.74331,-4.9481 15.58423,-8.4199 29.72696,-10.4875 9.26093,-1.3539 11.35291,-1.5618 22.72562,-2.2586 10.60673,-0.6498 9.78563,-0.6762 58.64406,1.8848 10.37465,0.5438 21.74039,1.1391 25.25754,1.3228 3.51699,0.1837 8.28583,0.4877 10.59738,0.6755 l 4.20249,0.3415 7.08325,-1.5813 c 12.26463,-2.738 22.46374,-5.1978 60.26125,-14.5331 39.79173,-9.8279 80.78456,-20.5041 129.29406,-33.6735 29.9525,-8.1315 31.3265,-8.4778 59.5719,-15.01 50.6721,-11.7188 93.3736,-20.1918 147.9761,-29.3621 12.0425,-2.0225 23.5006,-3.6983 41.3248,-6.0442 15.7851,-2.0774 42.7297,-5.0843 45.5602,-5.0843 0.7481,0 2.5093,-0.1565 3.9132,-0.3478 3.5816,-0.4879 19.7723,-1.4864 29.3732,-1.8116 9.9767,-0.3379 31.7096,-0.1248 38.9847,0.3823 7.5451,0.5258 16.5527,1.4438 24.4198,2.4886 7.7168,1.0249 22.9972,4.0219 29.5567,5.7971 5.4097,1.464 14.298,4.7342 18.0121,6.6269 1.5327,0.781 3.2063,1.6331 3.7189,1.8934 3.4373,1.7449 7.5603,5.1823 10.3611,8.6387 1.0018,1.2366 2.4712,2.9407 3.2649,3.7868 1.9571,2.0864 1.8168,16.3407 -0.1952,19.6442 -3.7,6.0799 -10.4467,14.0659 -13.4959,15.9756 -0.6239,0.3905 -2.3044,1.5621 -3.735,2.6035 -5.4559,3.9718 -16.5323,10.7165 -20.6002,12.5438 -1.4486,0.6509 -3.8828,1.8224 -5.4092,2.6035 -1.5264,0.781 -6.7341,3.2838 -11.5728,5.5619 -4.8387,2.278 -10.4353,4.9406 -12.437,5.9169 -4.7753,2.3291 -14.6939,8.2052 -19.3757,11.4788 -2.048,1.4319 -6.7417,4.5205 -10.4306,6.8636 -3.6889,2.3431 -7.4248,4.7394 -8.302,5.3252 -5.5709,3.721 -11.9044,7.9118 -13.9501,9.2304 -1.312,0.8461 -4.1157,2.7632 -6.2293,4.2602 -2.114,1.4969 -4.9053,3.4673 -6.2029,4.3785 -1.2977,0.9112 -4.0254,2.988 -6.0619,4.6152 -2.0364,1.6271 -4.1383,3.1714 -4.6708,3.4318 -1.0546,0.5157 -4.8275,3.8056 -7.9921,6.969 -1.6674,1.6671 -1.7758,2.3377 -0.6535,4.0396 0.7401,1.1223 1.3458,3.2794 1.3458,4.7933 0,2.2876 -0.5204,3.073 -3.0788,4.6481 -8.7318,5.3757 -33.5581,10.7711 -73.7686,16.0319 -9.9828,1.3061 -15.483,1.8476 -23.7404,2.3374 -17.5432,1.0407 -31.8964,2.6676 -41.6032,4.7156 -11.4448,2.4147 -13.2481,4.8098 -6.4251,8.5339 4.8872,2.6675 9.412,5.4281 12.4138,7.5736 2.4087,1.7215 10.2313,9.3571 12.1237,11.8338 5.2653,6.8912 8.2164,11.7678 9.0955,15.029 0.3333,1.2366 1.2226,4.059 1.9763,6.272 1.9618,5.7594 0.5525,18.6457 -2.6016,23.7859 -0.6784,1.1065 -2.0685,3.3963 -3.0883,5.0886 -4.6717,7.7512 -15.0453,16.733 -26.788,23.1943 -11.6387,6.4039 -32.7188,15.644 -40.2262,17.6324 -0.7371,0.1952 -2.6537,0.8342 -4.2593,1.42 -1.6053,0.5858 -3.4665,1.1945 -4.1357,1.3527 -2.8294,0.6687 -3.9341,0.9758 -9.0792,2.5246 -2.9764,0.8958 -5.9873,1.7479 -6.6903,1.8934 -0.7036,0.1455 -3.7212,0.8503 -6.7061,1.5663 -21.1556,5.0745 -46.6087,10.0409 -53.3174,10.4033 -5.8596,0.3164 -6.6604,0.3102 -9.3552,-0.073 z m 5.3175,-81.0906 c 23.5374,-1.1775 37.2161,-2.6911 54.0134,-5.9769 12.6079,-2.4664 20.1127,-5.2039 25.9297,-9.4585 3.0579,-2.2367 2.662,-6.9169 -0.8013,-9.4707 -3.0088,-2.2188 -10.0116,-5.3135 -15.5933,-6.8913 -11.6995,-3.3071 -34.1948,-6.3516 -57.3443,-7.7611 -7.8573,-0.4784 -11.6669,-0.5563 -27.3819,-0.56 -20.8739,0 -28.8939,0.3103 -45.2384,1.7772 -23.3182,2.0928 -37.13058,4.7461 -50.03365,9.6115 -2.80884,1.0591 -5.93738,2.5561 -6.9524,3.3265 -4.54341,3.4489 -4.22529,8.409 0.73224,11.4334 2.46632,1.5045 11.1083,4.9742 13.75523,5.5225 0.73286,0.1518 2.88868,0.6811 4.79039,1.1762 19.23639,5.0073 49.24009,7.7329 84.63889,7.6886 6.5525,-0.01 14.8653,-0.1863 19.4854,-0.4174 z m -43.0253,-4.3933 c -8.2586,-0.4407 -21.8196,-1.7939 -29.8732,-2.9811 -32.93945,-4.8554 -41.38197,-14.3208 -18.8766,-21.163 9.7335,-2.9592 27.7142,-5.5827 45.6303,-6.6578 7.4288,-0.4458 11.8893,-0.5484 23.7501,-0.5461 16.6558,0 23.9434,0.306 36.581,1.5199 15.8608,1.5236 28.1445,3.9346 37.0979,7.2816 11.0527,4.1317 11.1596,9.826 0.2636,14.035 -10.6593,4.1174 -28.3827,6.9808 -51.861,8.3786 -9.9035,0.5897 -32.8146,0.6609 -42.7121,0.1329 z m 1.7685,-20.0496 c 4.6872,-0.6222 8.5182,-1.9021 8.5182,-2.8458 0,-0.3652 -1.0785,-1.075 -2.3961,-1.5774 -8.59,-3.2746 -33.2717,-2.12 -33.2955,1.5575 -0.021,2.6791 15.9192,4.3597 27.1734,2.8657 z m 117.227,-58.3054 c 7.4379,-0.7175 9.1611,-0.9552 16.2961,-2.2477 19.1152,-3.4627 42.4897,-11.3971 72.2762,-24.5341 15.333,-6.7624 27.5564,-14.0525 39.9778,-23.843 13.0749,-10.3053 17.4884,-12.9743 29.7559,-17.9948 10.2381,-4.1898 34.1749,-11.9368 45.3172,-14.6666 1.5941,-0.3905 3.3009,-0.8166 3.793,-0.9469 6.0468,-1.6017 8.1752,-2.1487 8.7478,-2.2482 0.6394,-0.1112 3.0688,-0.749 12.6207,-3.3135 24.0341,-6.4528 40.6808,-13.5202 44.3976,-18.8496 3.148,-4.5131 1.2988,-8.297 -6.0267,-12.3335 -3.6175,-1.9931 -4.3548,-2.2852 -10.6034,-4.2 -3.0704,-0.941 -16.749,-4.1993 -23.2941,-5.5489 -1.0041,-0.207 -3.7419,-0.8529 -6.0847,-1.4352 -5.6592,-1.4069 -9.2859,-2.0178 -15.5809,-2.6244 -9.2568,-0.8921 -26.346,-0.62 -42.2251,0.6722 -25.7488,2.0953 -70.8892,10.0218 -107.5407,18.8835 -1.0923,0.2641 -3.9539,0.9564 -6.3591,1.5384 -9.7724,2.3648 -42.986,11.0423 -51.3762,13.4229 -28.2169,8.0057 -45.2348,13.0181 -51.2324,15.0898 -0.7536,0.2603 -2.2324,0.7396 -3.2862,1.065 -1.0535,0.3255 -5.7715,1.8698 -10.4839,3.4318 -32.1935,10.6711 -50.1126,18.0591 -67.4496,27.8095 -14.8482,8.3508 -21.0379,17.1983 -17.4206,24.9009 2.3519,5.0085 14.6279,11.286 29.5043,15.0874 24.6804,6.3066 67.2531,12.7445 89.1049,13.4744 9.403,0.3141 20.2447,0.079 27.1721,-0.5894 z m -869.05328,153.2854 c -7.87548,-1.1158 -9.84536,-2.7135 -5.18002,-4.2015 11.18683,-3.5682 37.4891,-0.8064 28.64531,3.0077 -2.61455,1.1276 -6.17696,1.6177 -13.06634,1.7977 -4.47463,0.1169 -5.89278,0.034 -10.39895,-0.6039 z m 199.56937,-0.01 c -6.04942,-0.8523 -7.54898,-1.3563 -7.54288,-2.5361 0.0203,-1.668 8.24185,-3.3852 16.2404,-3.3873 5.7537,0 11.6576,0.6947 14.23964,1.679 4.68158,1.7847 2.2542,3.5272 -6.20165,4.4514 -6.24678,0.6828 -10.82124,0.6263 -16.73551,-0.207 z m 487.14869,-6.6235 c -4.93155,-0.3967 -8.23815,-1.3716 -8.84983,-2.6092 -0.50188,-1.016 -0.10772,-1.3292 2.6528,-2.1037 1.78336,-0.5005 4.61787,-1.0319 6.29826,-1.1808 14.21389,-1.2595 29.37859,2.0061 21.22729,4.5711 -1.4854,0.4674 -4.2635,1.0071 -6.1736,1.1992 -3.7527,0.3773 -11.2398,0.4384 -15.15492,0.1234 z m -146.03572,-3.2774 c -5.85373,-0.7255 -8.15704,-1.3768 -8.80166,-2.4889 -1.79494,-3.0973 16.74103,-4.918 27.28613,-2.6802 6.83881,1.4513 6.83691,3.1133 0,4.5654 -5.01028,1.0632 -12.73419,1.3156 -18.47877,0.6037 z m -413.15963,-8.0244 c -5.60973,-0.3988 -10.95534,-1.9582 -10.94817,-3.1937 0.0127,-1.7539 7.79112,-3.1564 17.32227,-3.1225 4.97752,0.017 6.56882,0.146 10.12199,0.8157 7.0499,1.329 7.84764,2.9385 2.18805,4.4152 -3.7667,0.9829 -12.76945,1.5058 -18.68414,1.0853 z m 494.63577,-16.2694 c -4.91903,-0.4039 -10.00235,-1.6101 -10.95717,-2.5999 -0.95244,-0.9872 1.94449,-2.2688 6.99691,-3.0956 4.22166,-0.6908 12.38868,-0.7998 17.95867,-0.2396 7.85239,0.7897 10.91772,3.0426 6.19133,4.5502 -3.9902,1.2727 -13.56132,1.9293 -20.18974,1.3849 z m -397.63554,-31.6473 c -1.20058,-0.4101 -1.74832,-0.8257 -1.21704,-0.9236 2.1729,-0.4005 26.19195,-2.6435 38.69139,-3.6131 15.16116,-1.1761 39.46109,-2.5253 56.58905,-3.1419 14.57073,-0.5247 57.67114,-0.5978 72.40942,-0.1228 13.94819,0.4494 29.87208,1.2877 43.20195,2.2744 12.74401,0.9433 41.49303,3.6595 46.18726,4.3638 2.65786,0.3988 2.82579,0.5158 1.53195,1.0681 -0.7994,0.3412 -2.18608,0.675 -3.0818,0.7418 -0.89557,0.067 -5.14447,-0.2929 -9.44185,-0.7995 -14.61484,-1.7228 -30.21791,-3.1521 -43.3553,-3.9715 -58.94221,-3.6761 -122.61664,-2.5329 -181.67596,3.2619 -9.03023,0.8861 -16.69688,1.6103 -17.03752,1.6095 -0.34064,0 -1.60138,-0.3371 -2.80155,-0.7471 z"
         id="path2-4"
         inkscape:label="original dog"
         sodipodi:insensitive="true" />
    </g>
    <g
       inkscape:groupmode="layer"
       id="layer2"
       inkscape:label="uc"
       style="display:inline"
       transform="translate(1.4221478,0.24503461)"
       sodipodi:insensitive="true">
      <path
         style="display:inline;fill:#0000ff;fill-opacity:1;stroke:none;stroke-width:6.64445"
         d="M 640.4128,5.3001497 C 616.60626,8.2117869 619.5068,34.34872 619.5068,52.206994 V 199.44724 c 0,18.008 0.55764,44.95589 26.13247,42.12566 24.32098,-2.69163 20.90596,-31.55684 20.90596,-49.22154 V 45.110278 c 0,-17.512673 -2.08666,-42.7519384 -26.13243,-39.8108454 M 797.20762,5.1858702 C 773.11395,9.6109088 778.04374,37.228571 778.04374,55.755827 V 202.99688 c 0,18.48534 2.43696,43.40512 27.87456,38.41047 22.28431,-4.37564 19.16386,-31.88179 19.16386,-49.05419 0,-52.65648 0.23389,-105.309704 -0.068,-157.954989 -0.0923,-16.05621 -9.8227,-32.5149412 -27.8059,-29.2123008 m 156.79469,0.077937 c -23.05561,5.4186668 -19.1637,32.2171038 -19.1637,50.4932748 0,53.519838 -2.95131,108.011418 0.0744,161.433128 0.88412,15.60815 13.88652,27.68177 29.54146,23.88875 24.20162,-5.86403 16.51486,-32.37033 17.69313,-50.49856 3.39612,-52.25631 1.57187,-107.250235 0.8724,-159.659357 C 982.8126,15.341861 969.87124,1.534707 954.00217,5.2638072 m 160.27903,0.039021 c -23.5448,2.8824029 -20.906,31.0762508 -20.906,48.6809288 V 201.22497 c 0,17.70694 2.1571,42.46133 26.1325,40.39667 24.9177,-2.1459 20.9058,-31.24279 20.9058,-49.26639 V 45.114043 c 0,-18.211617 -1.0723,-42.8784199 -26.1323,-39.8108454 M 476.65043,7.2441344 C 456.41777,13.736749 461.25062,41.885743 461.36354,58.5529 c 0.35141,51.86492 -4.33692,105.14188 -0.23098,156.86398 1.26134,15.88972 14.43494,30.32874 31.19628,25.17665 21.5799,-6.63282 15.67943,-35.91525 15.67943,-53.56045 0,-52.34697 2.86826,-105.633021 -0.0751,-157.88532 C 506.96809,12.015987 492.98443,2.0028668 476.65076,7.2441344 M 441.30931,273.14438 c -72.99714,9.54672 -131.94131,60.97557 -151.04662,133.86377 -7.07328,26.98446 -5.25072,55.74406 -5.25072,83.37741 v 122.40558 406.24396 c 0,76.7534 -12.71854,164.595 33.84713,230.6187 55.88791,79.2415 142.65713,72.7336 227.47749,72.7336 h 416.37711 132.4044 c 26.4917,0 53.9428,2.1845 80.1396,-2.2806 66.2854,-11.2972 124.2961,-69.2375 137.6242,-136.0907 13.0469,-65.4437 3.4912,-140.8728 3.4912,-207.55664 V 577.31034 c 0,-81.21445 13.8782,-171.11341 -38.1329,-239.48883 -56.9637,-74.88609 -145.8842,-65.63783 -228.4182,-65.63783 H 645.63927 c -66.60715,0 -138.29362,-7.67685 -204.3306,0.96004 m 237.43175,46.39846 c 134.07857,-0.86954 268.31959,0.53957 402.43988,0.53957 67.3017,0 132.2664,-3.46922 171.6851,63.8638 18.5375,31.66424 18.2107,67.35253 18.2107,102.89151 V 609.242 969.36224 c 0,58.90026 5.1864,120.56156 -0.2954,179.17316 -5.8576,62.6217 -50.3184,122.9096 -116.4292,125.8837 -62.4507,2.8092 -125.6353,0.072 -188.15373,0.072 H 589.89034 c -70.86408,0 -164.84843,18.7995 -219.50585,-37.2555 -51.80092,-53.1248 -38.33441,-132.1098 -38.33441,-200.4595 V 561.34638 c 0,-66.24919 -15.26992,-148.35479 34.86882,-200.45968 42.40799,-44.07092 90.18439,-40.80317 146.31621,-40.80317 55.17147,0 110.35307,-0.17985 165.50562,-0.53955 M 30.655472,470.04434 c -21.0714208,5.21739 -24.8445408,36.75312 -3.484301,44.69074 15.366089,5.71033 36.170186,2.26158 52.26491,2.26158 H 185.70806 c 16.07655,0 41.40598,4.83478 55.72247,-3.70707 20.58867,-12.28354 11.65862,-41.01649 -10.42616,-43.86264 -41.03999,-5.28806 -85.78757,-0.32835 -127.178,-0.32835 -22.814844,0 -50.981065,-4.54785 -73.170898,0.94639 m 1336.240028,0 c -20.1029,4.97709 -25.561,34.83158 -5.2,43.93055 14.942,6.67767 36.2971,3.02112 52.2383,3.02112 h 111.4984 c 16.0567,0 39.5017,4.36686 53.8445,-4.28839 19.1645,-11.56525 9.9643,-39.97701 -10.2903,-43.2303 -40.3165,-6.47508 -86.3256,-0.37937 -127.1779,-0.37937 -23.3445,0 -52.211,-4.6749 -74.913,0.94574 M 6.9292362,651.79053 c 11.7171988,2.80847 16.5279248,15.90959 30.6948928,17.46116 41.245706,4.51686 85.631901,0.25785 127.177991,0.3089 21.07973,0.039 67.41251,8.44598 83.13857,-9.10682 16.4974,-18.4138 -2.98077,-38.96565 -22.16285,-40.40479 -43.06218,-3.23117 -87.47377,-0.15914 -130.662273,-0.15914 -21.070252,0 -47.722371,-4.33927 -67.875821,2.90571 -6.624653,2.38166 -10.605903,8.98026 -17.4969123,10.72366 M 1598.61,790.08882 c -12.3962,-1.11306 -17.8605,-15.65658 -31.3646,-17.3017 -40.3292,-4.91446 -83.2153,1.43989 -123.6949,1.43989 -23.9768,0 -55.2182,-5.44526 -78.3961,0.76249 -10.5366,2.82166 -18.5137,14.7515 -16.6729,25.84713 4.8513,29.24124 56.4435,20.4641 77.579,20.85664 46.8849,0.87165 96.2856,3.61769 142.9259,-1.28665 10.7887,-1.13436 16.3443,-10.59626 26.2009,-12.21122 m -223.0655,-187.482 c -24.6441,4.55641 -33.8759,36.53831 -6.9675,46.38474 15.6088,5.71196 35.8797,2.46287 52.2636,2.46287 h 102.7877 c 17.3542,0 41.4782,4.33768 57.4647,-3.63731 25.8595,-12.89978 7.892,-42.60063 -13.9107,-45.52121 -34.8595,-4.66979 -72.8439,-0.51339 -108.014,-0.51339 -26.7549,0 -57.2956,-4.04429 -83.6238,0.8243 M 98.599783,773.36369 c -20.732352,1.35857 -56.42099,-6.50389 -74.837798,3.44673 -14.7890388,7.99018 -14.8094477,32.953 0,40.95499 14.068657,7.60197 38.097718,3.13288 53.636118,3.73581 30.295077,1.17528 60.674257,-1.68435 90.888247,-1.12676 20.50233,0.37924 44.23801,4.57465 64.46002,0.64891 23.95539,-4.6507 28.61132,-39.27929 3.48436,-46.16612 -14.44837,-3.95991 -32.09883,-0.35203 -47.03844,-0.65577 -30.17719,-0.61653 -60.45492,-2.81311 -90.592507,-0.83779 M 6.1964972,958.98354 c 12.0798668,1.99124 19.3722038,13.99037 33.1696868,15.40083 38.705101,3.95602 79.556076,0.3011 118.467156,0.3011 24.17659,0 51.88533,3.8284 75.6525,-0.83105 10.574,-2.07318 19.36624,-10.98964 19.91367,-22.23092 1.26067,-25.88973 -25.61379,-24.83595 -43.30126,-24.83595 H 60.272176 c -10.874482,0 -24.615194,-2.23265 -34.836605,2.17939 -7.432061,3.20744 -11.200172,12.17736 -19.2457952,13.52359 M 1595.1872,942.18954 c -10.1812,-2.71398 -14.6458,-13.58445 -26.201,-15.07368 -43.8408,-5.64922 -91.6717,-0.32831 -135.8887,-0.32831 -20.3425,0 -67.8228,-9.09901 -80.5886,10.72071 -11.6254,18.04943 4.9096,35.01797 22.0945,36.77055 52.1286,5.31585 107.1343,0.40624 159.5395,0.40624 19.83,0 44.9143,5.1083 55.7493,-15.96591 M 28.912949,1079.0294 c -21.3212082,7.8514 -22.519819,38.0726 0.0011,45.0257 15.579398,4.81 36.077714,1.4198 52.263538,1.4198 H 187.44983 c 15.86961,0 41.63413,4.9469 55.67265,-3.7071 18.89227,-11.6462 9.23166,-40.0802 -10.37642,-43.723 -43.99811,-8.173 -96.33154,-0.4679 -141.115274,-0.4679 -18.513024,0 -45.242131,-4.9831 -62.717879,1.4525 m 1337.981993,-0.3207 c -24.0357,7.0768 -24.0358,38.557 0,45.6337 15.0667,4.4361 34.9028,1.1325 50.5227,1.1325 h 106.2721 c 15.8907,0 41.6069,4.9348 55.6739,-3.7071 19.2432,-11.8219 10.0404,-40.5645 -10.3777,-43.8117 -42.0065,-6.6808 -89.8492,-0.3792 -132.4044,-0.3792 -21.2542,0 -49.2371,-4.889 -69.6866,1.1318 m -869.33307,276.9276 c -19.29904,7.6113 -13.9441,37.2281 -13.9441,53.6767 0,53.5153 -7.80763,113.9524 0.37226,166.7553 2.28639,14.7583 17.28769,23.2799 30.98532,17.9284 20.2705,-7.9189 15.68073,-35.976 15.68073,-53.4084 0,-53.0858 6.21434,-110.5769 -0.32268,-163.207 -2.00269,-16.1234 -16.84127,-28.0281 -32.77168,-21.745 m 153.31042,0 c -19.50535,7.6903 -13.9441,37.0414 -13.9441,53.6767 0,53.754 -4.40306,109.6743 0.16411,163.2071 1.32724,15.5575 16.00124,27.4596 31.1882,21.4766 19.52705,-7.6922 13.9441,-36.6793 13.9441,-53.4084 v -111.7612 c 0,-18.225 2.62877,-38.8003 -0.39115,-56.7666 -2.38123,-14.1654 -18.1394,-21.4795 -30.96085,-16.4242 m 153.31053,0 c -19.15867,7.5535 -13.94414,35.5434 -13.94414,51.9028 0,53.3827 -7.00388,112.1997 -0.65718,164.981 1.9199,15.967 16.30659,27.6211 32.01508,21.4766 20.09426,-7.8594 13.98834,-34.059 15.26126,-50.882 3.81697,-50.442 3.31988,-105.8408 0.10844,-156.3572 -1.14665,-18.0413 -10.67913,-39.8367 -32.78394,-31.1212 m 151.56834,0 c -19.29885,7.6125 -13.94415,37.2272 -13.94415,53.6767 0,53.7545 -4.4026,109.674 0.16382,163.2071 1.32018,15.4774 15.88346,27.7262 31.19373,21.7449 20.47209,-7.9972 15.68064,-36.1848 15.68064,-53.6767 0,-53.4209 5.38585,-110.1274 -0.30214,-163.207 -1.8035,-16.8304 -16.16348,-28.3046 -32.7919,-21.745 m 155.0713,-0.1593 c -20.6424,6.7656 -15.705,37.0043 -15.705,53.8354 v 150.7894 c 10e-4,17.6761 6.9766,40.7394 29.6156,34.7172 22.8218,-6.071 17.4228,-36.2639 17.4228,-54.2312 v -152.5634 c 0,-19.0861 -8.0074,-40.193 -31.3334,-32.5474"
         id="path2"
         sodipodi:nodetypes="csssssccsssssccsssssccssssscccscsscccscssscssssssssccssscsssssssscsccssssssccssssssccscssssccssssssccssssssccsssccscccsssssssccsssssccsssscsccssssssccsssssccssssssccsssssccsssssccscsscc"
         inkscape:label="uc"
         sodipodi:insensitive="true" />
    </g>
    <g
       inkscape:groupmode="layer"
       id="layer1"
       inkscape:label="gear"
       style="display:inline"
       transform="translate(1.4221478,0.24503461)">
      <path
         style="display:none;fill:#0000ff;fill-opacity:1;stroke:none;stroke-width:4.09727"
         d="m 911.54322,975.05969 c -14.70752,1.79211 -12.91559,17.87936 -12.91559,28.87111 v 90.6262 c 0,11.0839 0.34451,27.6703 16.14447,25.9283 15.02533,-1.6567 12.91556,-19.4232 12.91556,-30.2958 v -90.62672 c 0,-10.77903 -1.28913,-26.31377 -16.14444,-24.50353 m 96.86678,-0.0699 c -14.88491,2.72361 -11.83931,19.72225 -11.83931,31.12575 v 90.6267 c 0,11.3777 1.50553,26.7158 17.22071,23.6416 13.7671,-2.6932 11.8393,-19.6232 11.8393,-30.1928 0,-32.41 0.1445,-64.818 -0.042,-97.22111 -0.057,-9.88258 -6.0684,-20.01291 -17.1783,-17.98014 m 96.8667,0.048 c -14.2436,3.33518 -11.8392,19.82959 -11.8392,31.07855 0,32.9414 -1.8233,66.4809 0.046,99.3619 0.5462,9.6068 8.579,17.0381 18.2505,14.7035 14.9516,-3.6093 10.2028,-19.9239 10.9307,-31.0818 2.0981,-32.1637 0.9711,-66.0124 0.539,-98.27015 -0.1286,-9.58897 -8.1237,-18.08726 -17.9275,-15.792 m 99.0193,0.024 c -14.5458,1.77411 -12.9156,19.12739 -12.9156,29.96305 v 90.6268 c 0,10.8986 1.3327,26.1349 16.1445,24.8641 15.394,-1.3208 12.9155,-19.2299 12.9155,-30.3234 v -90.6268 c 0,-11.20923 -0.6625,-26.39162 -16.1444,-24.50353 m -393.92398,1.19464 c -12.4996,3.9962 -9.5139,21.32187 -9.44414,31.58049 0.2171,31.9228 -2.67932,64.7147 -0.1427,96.5496 0.77925,9.7801 8.91781,18.6673 19.27285,15.4962 13.33192,-4.0825 9.68665,-22.1058 9.68665,-32.9664 0,-32.2195 1.77199,-65.017 -0.0464,-97.17823 -0.59623,-10.54459 -9.23524,-16.70765 -19.32607,-13.48166 M 788.5384,1139.9175 c -45.09714,5.876 -81.51245,37.5304 -93.31558,82.393 -4.36983,16.6089 -3.24386,34.3104 -3.24386,51.3187 v 75.3405 250.0427 c 0,47.2416 -7.85743,101.308 20.91052,141.9455 34.52718,48.7731 88.13262,44.7675 140.53406,44.7675 h 257.23496 81.7986 c 16.3664,0 33.3255,1.3445 49.5097,-1.4037 40.9507,-6.9534 76.7893,-42.6156 85.0233,-83.7637 8.0603,-40.2805 2.1568,-86.7071 2.1568,-127.7509 v -245.6758 c 0,-49.9874 8.5739,-105.3201 -23.5582,-147.4051 -35.1918,-46.0923 -90.1263,-40.4 -141.1153,-40.4 H 914.7721 c -41.14945,0 -85.43687,-4.7251 -126.23407,0.5909 m 146.68373,28.5582 c 82.83284,-0.5352 165.76604,0.3321 248.62464,0.3321 41.5786,0 81.7133,-2.1353 106.0659,39.3081 11.4523,19.4893 11.2505,41.4554 11.2505,63.3296 v 75.3401 221.6536 c 0,36.253 3.2041,74.2055 -0.1825,110.2809 -3.6188,38.5436 -31.0864,75.6507 -71.9292,77.4812 -38.5816,1.7291 -77.6167,0.044 -116.2401,0.044 H 880.33078 c -43.77935,0 -101.84224,11.571 -135.60923,-22.9307 -32.00226,-32.6983 -23.68274,-81.3135 -23.68274,-123.3826 v -292.6261 c 0,-40.7763 -9.43365,-91.3122 21.54172,-123.3827 26.19937,-27.1256 55.71531,-25.1143 90.39317,-25.1143 34.08456,0 68.17538,-0.1107 102.24825,-0.3321 m -400.3827,92.6328 c -13.01778,3.2113 -15.34879,22.6215 -2.15258,27.5071 9.49307,3.5147 22.3457,1.392 32.28891,1.392 h 65.65412 c 9.93198,0 25.58033,2.9758 34.42496,-2.2817 12.71954,-7.5605 7.20262,-25.2456 -6.44121,-26.9974 -25.35423,-3.2548 -52.99898,-0.2021 -78.56971,-0.2021 -14.09486,0 -31.49576,-2.7992 -45.20449,0.5825 m 825.52005,0 c -12.4194,3.0634 -15.7914,21.4388 -3.2125,27.0392 9.2311,4.1101 22.4241,1.8595 32.2725,1.8595 h 68.883 c 9.9197,0 24.4038,2.6878 33.2647,-2.6395 11.8397,-7.1184 6.1559,-24.6058 -6.3573,-26.6082 -24.9072,-3.9854 -53.3313,-0.2335 -78.5696,-0.2335 -14.4221,0 -32.2556,-2.8774 -46.2808,0.5821 m -840.17796,111.8646 c 7.23881,1.7286 10.21084,9.7923 18.9631,10.7473 25.48132,2.7801 52.90281,0.1587 78.56971,0.1901 13.02291,0.024 41.64699,5.1985 51.36245,-5.6052 10.19198,-11.3337 -1.8415,-23.9833 -13.69206,-24.8691 -26.60353,-1.9888 -54.04071,-0.098 -80.72228,-0.098 -13.01706,0 -29.48256,-2.6708 -41.93322,1.7885 -4.09267,1.4659 -6.55226,5.5273 -10.80948,6.6004 m 981.59144,96.3684 c -7.6583,-0.6851 -11.0341,-9.6366 -19.3768,-10.6492 -24.9152,-3.0248 -51.4099,0.8863 -76.4179,0.8863 -14.8127,0 -34.1135,-3.3516 -48.4326,0.4693 -6.5094,1.7367 -11.4376,9.0795 -10.3004,15.9089 2.9971,17.9979 34.8704,12.5956 47.9278,12.8372 28.9652,0.5365 59.4846,2.2267 88.2986,-0.7919 6.6652,-0.6982 10.0974,-6.522 16.1868,-7.516 m -363.7836,-184.9729 c -8.2328,3.398 -3.9631,14.9565 -11.9073,18.4368 -5.9092,2.5887 -10.6921,-4.2518 -16.1237,-5.3179 -6.5145,-1.2786 -16.2414,8.9034 -18.449,14.464 -3.2525,8.1922 7.4551,14.3096 4.0677,21.7738 -3.7209,8.1992 -16.5688,3.4543 -18.6136,13.1826 -1.1489,5.4661 -1.7521,18.0243 3.1849,21.72 4.7265,3.5379 12.2658,1.6848 15.28,7.8589 2.8463,5.8302 -3.3787,10.8853 -4.61,16.2605 -1.676,7.3167 8.0518,16.1505 13.7585,19.1762 8.371,4.4381 13.7584,-7.5922 21.4786,-4.2934 6.7431,2.881 4.5967,10.2986 7.77,15.4406 3.3088,5.3617 19.2639,4.965 24.45,2.7145 7.4881,-3.2495 3.4361,-14.473 10.9416,-17.7795 6.1561,-2.7118 10.4699,3.6897 16.0821,4.8942 6.9358,1.4886 16.6648,-8.935 19.3269,-14.6933 3.6961,-7.9948 -9.1228,-14.0758 -4.4896,-21.7748 4.3994,-7.3099 16.4919,-3.5131 18.2821,-13.1824 1.0653,-5.7538 1.9476,-17.9787 -3.2289,-21.811 -4.8129,-3.563 -12.3773,-1.3741 -15.3597,-7.7165 -2.8177,-5.9919 4.0817,-10.7404 5.1192,-16.3151 1.3701,-7.3627 -9.4248,-16.783 -15.3448,-19.4106 -7.4649,-3.313 -12.8936,8.2801 -20.3907,4.6693 -6.2427,-3.0069 -4.6515,-10.4095 -7.9194,-15.4011 -3.5195,-5.3759 -17.9856,-5.091 -23.3049,-2.8958 m 15.0209,10.1085 c 2.1003,10.9867 7.8972,22.5288 21.5259,20.7704 5.1417,-0.6635 9.7577,-7.7281 15.0009,-3.927 7.6794,5.5672 -1.1661,10.8318 -1.9973,17.0051 -0.5791,4.3014 2.7498,11.4716 4.8168,15.1684 3.3401,5.974 12.3633,3.1451 14.8954,8.2349 4.8297,9.7078 -12.5825,10.7725 -15.9319,18.0929 -1.7433,3.8101 -4.6488,8.7625 -3.6482,13.0983 1.1057,4.7913 6.7711,8.9829 3.4159,14.1256 -5.5126,8.4491 -12.759,-3.7045 -19.7805,-1.6128 -4.4836,1.3359 -12.3665,4.2376 -14.9179,8.3791 -1.8612,3.021 -1.3203,7.3867 -3.5559,10.1142 -1.7058,2.081 -5.8245,2.2039 -8.0957,1.0918 -4.8819,-2.3906 -3.0509,-11.162 -8.0157,-14.534 -3.4714,-2.358 -10.7056,-5.6618 -14.9244,-5.3584 -6.0457,0.4346 -13.9921,10.4339 -18.2083,0.8753 -2.158,-4.8924 3.0742,-8.7469 4.2722,-13.0808 1.1649,-4.2148 -1.9739,-10.4725 -3.8843,-14.1777 -3.9191,-7.6007 -17.9012,-5.6077 -16.4567,-15.2435 1.0657,-7.1077 14.1126,-4.6278 17.1643,-13.1668 1.2638,-3.5358 3.8792,-8.1852 3.517,-12.0065 -0.5216,-5.5043 -9.1115,-11.9172 -2.3851,-16.7911 5.1266,-3.7145 10.0264,2.8887 14.9046,3.7881 4.0966,0.7552 9.2898,-2.1536 12.9113,-3.8588 11.2943,-5.3184 4.6316,-16.9751 19.3776,-16.9867 m -11.8393,34.4265 c -34.7571,8.0941 -19.8181,60.2753 13.9919,52.3469 33.5627,-7.8708 19.1564,-60.0662 -13.9919,-52.3469 m 5.3815,9.7637 c 21.0092,-1.0167 23.3405,31.3162 2.1526,32.9068 -20.5669,1.5441 -23.0361,-31.8958 -2.1526,-32.9068 m 217.4121,15.2792 c -15.2249,2.8045 -20.9283,22.4893 -4.3045,28.5498 9.6431,3.5157 22.1663,1.5159 32.2882,1.5159 h 63.5015 c 10.7213,0 25.6249,2.6698 35.5013,-2.2388 15.9758,-7.9398 4.8756,-26.2206 -8.5939,-28.0182 -21.536,-2.8743 -45.0025,-0.316 -66.7304,-0.316 -16.529,0 -35.3968,-2.4893 -51.6622,0.5073 m -786.77331,93.9561 c -12.80831,0.8362 -34.85651,-4.0031 -46.23429,2.1215 -9.13657,4.9179 -9.14918,20.2825 0,25.2077 8.69152,4.679 23.53651,1.9283 33.13603,2.2994 18.7161,0.7234 37.48415,-1.0367 56.15015,-0.6935 12.6662,0.2334 27.32994,2.8157 39.82297,0.3994 14.79948,-2.8625 17.67588,-24.1764 2.15261,-28.4152 -8.9261,-2.4373 -19.83044,-0.2167 -29.06003,-0.4036 -18.64326,-0.3795 -37.34864,-1.7315 -55.96744,-0.5157 m -57.08613,114.2488 c 7.46286,1.2256 11.96802,8.6111 20.49201,9.4792 23.91175,2.4349 49.14921,0.1853 73.18821,0.1853 14.93614,0 32.05441,2.3564 46.73761,-0.5115 6.53254,-1.276 11.96433,-6.7641 12.30253,-13.6831 0.77883,-15.9351 -15.82403,-15.2865 -26.75123,-15.2865 h -92.56154 c -6.71818,0 -15.2071,-1.3742 -21.52182,1.3414 -4.59148,1.9742 -6.91939,7.4952 -11.88992,8.3238 m 981.67189,-0.1853 c -6.2899,-1.6704 -9.048,-8.3612 -16.1868,-9.2778 -27.0845,-3.4771 -56.6342,-0.2021 -83.9511,-0.2021 -12.5675,0 -41.9005,-5.6004 -49.7871,6.5986 -7.1821,11.1094 3.0331,21.5535 13.6498,22.6322 32.2047,3.2719 66.1869,0.2501 98.5625,0.2501 12.2508,0 27.7477,3.1441 34.4415,-9.827 m -964.36247,74.0508 c -13.1721,4.8325 -13.91259,23.4336 8.5e-4,27.7133 9.62485,2.9605 22.28857,0.8738 32.28806,0.8738 h 65.6543 c 9.80414,0 25.72129,3.0449 34.39419,-2.2816 11.67152,-7.1683 5.70326,-24.6694 -6.41048,-26.9115 -27.18174,-5.0305 -59.51298,-0.288 -87.18007,-0.288 -11.43722,0 -27.95028,-3.0671 -38.74668,0.894 m 826.5963,-0.1974 c -14.8491,4.3558 -14.8492,23.7318 0,28.0875 9.3081,2.7304 21.5627,0.697 31.2126,0.697 h 65.6541 c 9.8172,0 25.7045,3.0374 34.395,-2.2816 11.8883,-7.2764 6.2029,-24.9675 -6.4113,-26.9661 -25.9513,-4.112 -55.5082,-0.2334 -81.7985,-0.2334 -13.1307,0 -30.4184,-3.0092 -43.0519,0.6966 M 823.29104,1806.19 c -11.92281,4.6848 -8.61457,22.9139 -8.61457,33.038 0,32.9386 -4.8235,70.1376 0.22998,102.6377 1.41252,9.0837 10.68022,14.3287 19.14252,11.0349 12.52298,-4.8741 9.68745,-22.1432 9.68745,-32.8728 0,-32.6743 3.83918,-68.06 -0.19935,-100.4537 -1.23725,-9.924 -10.40442,-17.2513 -20.24612,-13.3841 m 94.71414,0 c -12.05027,4.7334 -8.61457,22.799 -8.61457,33.038 0,33.0855 -2.72018,67.5044 0.10139,100.4538 0.81996,9.5756 9.88546,16.9013 19.26786,13.2188 12.06368,-4.7345 8.61457,-22.5761 8.61457,-32.8728 v -68.7889 c 0,-11.2175 1.62404,-23.8815 -0.24165,-34.9398 -1.47111,-8.7188 -11.2064,-13.2206 -19.12741,-10.1091 m 94.71422,0 c -11.8361,4.6492 -8.6146,21.8769 -8.6146,31.9462 0,32.8569 -4.32695,69.0587 -0.406,101.5456 1.1861,9.8276 10.0741,17.0007 19.7787,13.2188 12.4141,-4.8375 8.6419,-20.9633 9.4283,-31.3178 2.3581,-31.047 2.051,-65.1449 0.067,-96.2377 -0.7084,-11.1044 -6.5975,-24.5194 -20.2537,-19.1551 m 93.6379,0 c -11.9227,4.6855 -8.6146,22.9133 -8.6146,33.038 0,33.0858 -2.7199,67.5042 0.1012,100.4538 0.8156,9.5263 9.8127,17.0654 19.2713,13.3839 12.6475,-4.9222 9.6874,-22.2717 9.6874,-33.0379 0,-32.8805 3.3273,-67.7833 -0.1867,-100.4537 -1.1142,-10.3591 -9.9857,-17.4215 -20.2586,-13.3841 m 95.802,-0.098 c -12.7527,4.1642 -9.7024,22.7761 -9.7024,33.1356 v 92.8107 c 6e-4,10.8796 4.3101,25.0751 18.2963,21.3684 14.0991,-3.7367 10.7637,-22.3204 10.7637,-33.3792 v -93.9026 c -7e-4,-11.7475 -4.9469,-24.7388 -19.3576,-20.0329"
         id="path1-3"
         sodipodi:nodetypes="csssssccsssssccsssssccssssscccscsscccscssscssssssssccssscsssssssscsccssssssccssssssccscssssccssssssccsssssssssssssssssssssssccsssssssssssssssssssssssccsccsccssssssccsssccscccsssssssccsssssccsssscsccssssssccsssssccssssssccsssssccsssssccscsscc"
         inkscape:label="gear"
         sodipodi:insensitive="true" />
    </g>
    <path
       style="display:inline;fill:#1a1a1a;fill-opacity:1;stroke-width:0.533325"
       d="m 988.1318,1295.9702 c -0.1732,-0.2834 0.4447,-1.7261 1.3729,-3.2063 7.1045,-11.3274 18.0199,-34.4386 22.1783,-46.9582 0.6062,-1.8251 1.5179,-4.4779 2.0259,-5.8952 3.0323,-8.4583 6.5053,-25.4511 7.5501,-36.9411 0.8355,-9.1905 0.3378,-28.2197 -0.9426,-36.029 -1.2387,-7.5549 -4.8965,-18.5411 -8.5972,-25.8209 -5.0871,-10.0076 -8.3594,-14.4933 -18.0941,-24.804 -8.6708,-9.1839 -10.7017,-11.9739 -12.7797,-17.556 -1.8671,-5.0156 -2.5146,-12.9804 -1.4406,-17.7172 1.9173,-8.4554 8.07,-17.7635 16.0407,-24.2677 12.4832,-10.1862 26.5224,-15.739 48.1234,-19.0336 12.1628,-1.8551 27.545,-1.2947 40.8722,1.489 23.3813,4.8837 41.1054,16.4853 48.8092,31.9487 3.111,6.2448 4.0619,16.5568 2.2506,24.4078 -1.8198,7.8875 -8.5033,17.1639 -16.8097,23.3308 -4.3027,3.1945 -6.4732,6.2266 -9.2239,12.8853 -5.663,13.7092 -6.8131,20.7772 -6.8188,41.9055 0,14.4301 0.1544,17.1854 1.387,24.1331 1.7812,10.0417 4.8232,21.5259 7.8309,29.563 4.061,10.8522 11.1064,26.2244 14.932,32.5797 0.9986,1.6591 2.1388,3.7632 2.5338,4.6758 0.3949,0.9125 0.8869,1.6592 1.0933,1.6592 0.2063,0 0.8595,1.0859 1.4515,2.4132 0.5919,1.3274 1.304,2.4134 1.5823,2.4134 0.2783,0 0.506,0.2374 0.506,0.5278 0,0.2904 2.5527,4.3856 5.6727,9.1005 5.2317,7.906 6.2075,10.0323 4.3026,9.3745 -0.3997,-0.1381 -3.1433,-0.8206 -6.0969,-1.5169 -7.0438,-1.6603 -11.8652,-3.3419 -26.2537,-9.1563 -14.2003,-5.7383 -15.2407,-6.1065 -21.7826,-7.7095 -7.5581,-1.8521 -10.5671,-2.131 -22.6698,-2.1014 -9.2059,0.023 -12.0788,0.2559 -17.3036,1.4063 -12.2292,2.6926 -15.5163,4.044 -36.4259,14.974 -3.7897,1.9809 -8.8912,4.3767 -11.3369,5.3238 -2.4456,0.9472 -4.8083,1.9982 -5.2506,2.3355 -0.4422,0.3374 -1.382,0.6975 -2.0885,0.8003 -0.7062,0.1023 -2.2965,0.5904 -3.5338,1.0839 -2.6327,1.05 -2.6566,1.0529 -3.0665,0.3822 z m -32.3042,-44.9799 c -5.5926,-2.4631 -6.78373,-9.3012 -2.3924,-13.7349 3.3792,-3.4119 9.2323,-2.5167 12.1102,1.8521 2.6453,4.0158 1.1501,9.7349 -3.0751,11.7622 -2.4226,1.1625 -4.2037,1.1947 -6.6427,0.1206 z m 219.0101,0.4212 c -2.1975,-0.5502 -4.9679,-3.158 -5.6832,-5.3493 -0.9614,-2.9459 0.1691,-7.0128 2.5011,-8.9969 6.4365,-5.4764 15.8196,1.3567 12.6974,9.2469 -1.4115,3.5672 -5.9409,5.9945 -9.5153,5.0993 z m -322.676,-6.2151 c -2.80744,-0.8528 -15.20178,-11.4047 -23.79082,-20.2539 -12.35666,-12.7311 -22.99005,-26.228 -28.71877,-36.4528 -0.46485,-0.8296 -1.76535,-3.1373 -2.8899,-5.1283 -3.60427,-6.3807 -10.86244,-21.567 -14.99456,-31.373 -3.15067,-7.4771 -11.12805,-32.1295 -13.54162,-41.8473 -5.22866,-21.0526 -8.48048,-42.2282 -10.1115,-65.8466 -1.11521,-16.1487 -1.3077,-20.1635 -1.46081,-30.468 -0.34167,-23.00801 2.10757,-58.42131 5.25768,-76.01939 1.09598,-6.12244 2.93884,-14.43508 3.74524,-16.89316 0.54979,-1.67604 1.00395,-5.03241 1.02184,-7.55269 0.0281,-3.94134 -0.22354,-5.06172 -1.91914,-8.54576 -1.07325,-2.20533 -2.87021,-4.8254 -3.99307,-5.82234 -4.62848,-4.10914 -13.81545,-8.23005 -22.43464,-10.06338 -4.43632,-0.9436 -7.03293,-2.12661 -14.56976,-6.6375 -12.17227,-7.28535 -21.71159,-15.06501 -28.03072,-22.86018 -3.49245,-4.30817 -8.11462,-13.15964 -9.32411,-17.85564 -0.38464,-1.49323 -0.90034,-8.41641 -1.14615,-15.38483 -0.56891,-16.13484 -0.31365,-14.96728 -9.10372,-41.62957 -7.10032,-21.53647 -19.92465,-54.80047 -28.14491,-73.00253 -0.89921,-1.99098 -2.04997,-4.57021 -2.55746,-5.73162 -0.50738,-1.1614 -1.39759,-3.19763 -1.97809,-4.52495 -6.06105,-13.85712 -22.11356,-47.00922 -30.52304,-63.0369 -1.56341,-2.9796 -3.39941,-6.99341 -7.31835,-15.99891 -1.65555,-3.80409 -4.89386,-12.45272 -8.01979,-21.41811 -5.96463,-17.10715 -10.96852,-39.11278 -13.17037,-57.91938 -0.36911,-3.15239 -0.92891,-7.76784 -1.24414,-10.25656 -0.75127,-5.933 -0.73068,-30.81795 0.0293,-36.03763 0.32727,-2.24601 0.98978,-6.79859 1.47207,-10.11689 1.76085,-12.11329 4.09769,-20.10671 8.39013,-28.69924 8.48846,-16.99204 22.07531,-27.66465 39.56692,-31.0802 8.90325,-1.73849 27.38654,-0.50661 32.30088,2.15273 0.62224,0.33677 1.60121,0.61232 2.17553,0.61232 0.57442,0 2.13592,0.50679 3.47017,1.12622 1.33425,0.61944 3.90274,1.73951 5.70769,2.48915 6.03483,2.50628 13.96147,6.7592 20.58536,11.0448 3.60978,2.33561 6.69768,4.40568 6.86171,4.6002 0.16413,0.19451 2.98338,2.36768 6.26512,4.82921 3.28174,2.46156 7.7121,5.98729 9.84521,7.83491 6.74449,5.84196 24.02178,22.0799 27.74542,26.07647 1.96909,2.11333 7.37809,7.91432 12.01995,12.8911 13.87575,14.87665 32.56458,36.47419 52.72829,60.93487 3.00892,3.65013 6.62332,7.9941 8.03227,9.65323 1.40884,1.65915 3.59933,4.26535 4.86788,5.79153 4.65221,5.59748 13.2147,15.5309 20.23064,23.46984 3.95877,4.4797 10.80878,12.24603 15.22204,17.25853 24.00806,27.26736 57.87314,62.98396 59.71893,62.98396 0.64383,0 1.9359,-0.40025 2.87133,-0.88943 1.72924,-0.90415 7.1271,-2.99413 17.33355,-6.71128 3.1176,-1.13541 6.2055,-2.31974 6.86182,-2.63177 0.65633,-0.31204 3.35987,-1.23961 6.00777,-2.06127 4.4281,-1.37415 5.2917,-1.4521 10.7628,-0.9716 9.4972,0.83416 17.102,4.21279 23.6909,10.52522 6.019,5.76648 9.9936,14.03405 12.3614,25.71327 1.6373,8.07634 1.7722,25.19033 0.2943,37.35953 -2.0432,16.8241 -9.8288,46.70454 -15.1213,58.03352 -3.1405,6.72268 -6.8033,16.23842 -8.8861,23.08564 -4.864,15.99082 -5.6923,19.18797 -7.9778,30.79798 -2.7389,13.91271 -3.1438,37.18918 -0.8556,49.17114 2.4337,12.74316 4.1387,17.73274 11.6531,34.10391 1.331,2.89963 2.9364,6.79725 3.5675,8.66138 0.6311,1.86406 2.2408,6.49094 3.5769,10.28194 4.6168,13.098 6.7112,23.5466 6.693,33.3898 -0.014,7.2355 -0.1679,8.6143 -1.052,9.3981 -0.3085,0.2735 -4.4541,1.9356 -9.2126,3.69371 -13.9506,5.1541 -31.6747,13.7138 -41.46904,20.027 -18.44201,11.8873 -25.05273,17.1859 -37.99833,30.4565 -10.58535,10.8512 -15.22991,16.8451 -24.47752,31.5893 -4.69935,7.4922 -12.40695,22.2681 -12.40695,23.7844 0,0.1721 -0.63832,1.7463 -1.4184,3.4983 -3.13774,7.0471 -10.08101,29.8434 -11.62833,38.1782 -1.10273,5.9395 -1.82025,9.9677 -2.74095,15.3848 -2.92287,17.1995 -3.91107,48.97 -1.86345,59.9101 0.54652,2.9199 2.19611,8.615 3.66581,12.6559 2.4525,6.7433 2.86155,8.9691 1.62292,8.8314 -0.25639,-0.028 -1.215,-0.2794 -2.13018,-0.5575 z m 10.59311,-204.2295 c 16.14431,-4.2425 28.8774,-14.6336 36.32849,-29.6465 3.90837,-7.8749 5.37559,-15.04001 5.29324,-25.85041 -0.0495,-6.5243 -0.31747,-8.7357 -1.59289,-13.1505 -8.00594,-27.71221 -34.06589,-44.90764 -61.47257,-40.56206 -7.42624,1.17747 -11.21513,2.4548 -17.61761,5.93943 -10.37801,5.64829 -18.25346,13.83263 -23.32845,24.24333 -5.01131,10.2802 -6.66821,20.1314 -5.33542,31.7231 0.81495,7.08851 2.11095,11.36981 5.55558,18.35311 3.12784,6.3412 4.88667,8.8639 9.468,13.5807 7.18684,7.3994 14.39381,11.7087 24.8076,14.8336 9.94376,2.9837 17.99178,3.1385 27.89403,0.5362 z m -23.46659,-14.5155 c -4.19997,-1.1423 -11.48738,-5.0168 -15.59475,-8.2911 -4.6368,-3.6964 -10.24538,-11.9136 -12.33596,-18.0737 -1.52235,-4.48571 -1.68458,-5.74721 -1.68525,-13.10831 -5.6e-4,-7.3228 0.16571,-8.6346 1.6479,-12.9972 2.8152,-8.2857 8.43198,-15.7477 15.42386,-20.491 13.97452,-9.48041 30.95695,-9.81104 44.32634,-0.863 7.32431,4.9022 11.70236,9.8013 14.62342,16.3643 3.04155,6.8332 3.79575,10.4499 3.81409,18.2886 0.0146,6.2481 -0.20149,7.912 -1.57669,12.1453 -4.21425,12.97231 -14.84977,23.04191 -28.28047,26.77551 -5.22652,1.453 -15.47797,1.5791 -20.36249,0.2506 z m 23.76697,-49.71601 c 6.65201,-4.7894 3.81341,-15.2775 -4.36152,-16.1151 -5.03662,-0.5161 -9.34312,3.5555 -9.34312,8.8336 0,7.0333 8.08391,11.3284 13.70464,7.2815 z M 760.84727,824.58617 c 7.36492,-2.77126 18.71077,-11.15371 29.43235,-21.74475 6.04947,-5.97589 7.04914,-7.17283 11.2356,-13.45274 3.80205,-5.70349 5.88116,-9.74952 8.39003,-16.32778 4.09826,-10.74556 5.42609,-18.58541 5.43127,-32.06845 0.0112,-19.381 -4.63567,-40.5713 -14.51306,-66.23585 -1.93511,-5.02813 -3.14854,-7.88101 -7.43861,-17.49069 -1.87403,-4.19735 -6.99446,-14.43339 -10.2645,-20.5189 -5.73086,-10.66484 -8.30092,-15.32753 -10.143,-18.40148 -28.28384,-47.19797 -54.76578,-83.80881 -78.99703,-109.21208 -8.18067,-8.57636 -11.70844,-11.7922 -18.90146,-17.22976 -8.55045,-6.46374 -10.67479,-7.73422 -17.74519,-10.613 -3.85661,-1.57022 -5.40213,-1.87151 -9.69367,-1.8898 -7.38776,-0.0314 -10.47184,1.70024 -17.06569,9.58216 -1.36451,1.63098 -3.04312,3.56543 -3.73016,4.2987 -2.77391,2.96029 -9.60097,11.90534 -9.60097,12.57949 0,0.39658 -0.38273,1.04219 -0.85039,1.43472 -1.29802,1.08919 -5.06182,10.60787 -6.33678,16.02556 -1.81767,7.72343 -1.56657,20.87868 0.57577,30.16636 1.7847,7.73761 6.62557,19.45982 11.92016,28.86497 1.8387,3.26617 7.55437,11.62563 12.70159,18.5765 18.22443,24.61037 27.34852,40.03279 35.11079,59.3474 1.54755,3.85067 4.88227,15.08173 7.07602,23.83142 11.19769,44.66147 14.31833,54.26299 25.98232,79.9408 1.05525,2.32279 3.6396,8.02423 5.74302,12.66984 2.10352,4.64562 4.97013,10.42277 6.37031,12.83808 1.40006,2.41535 2.54565,4.49948 2.54565,4.63149 0,0.37178 5.78621,9.81976 8.75846,14.3014 10.17472,15.34133 21.61867,20.75806 34.00717,16.09639 z m 510.67133,402.30373 c -1.0512,-0.7773 -1.0583,-0.9995 -0.1481,-4.6759 0.5257,-2.1228 1.1341,-5.2172 1.3521,-6.8763 0.218,-1.6592 0.4755,-3.1524 0.5722,-3.3183 0.5836,-1.001 1.1724,-12.6547 1.0821,-21.4181 -0.1709,-16.5853 -4.144,-40.1665 -10.1141,-60.031 -6.0134,-20.0073 -16.523,-42.4796 -26.3822,-56.4111 -16.2844,-23.0109 -33.0824,-39.0897 -55.883,-53.4908 -8.9767,-5.67 -24.7992,-13.4931 -34.607,-17.1108 -1.6409,-0.6053 -3.2519,-1.2946 -3.5801,-1.5319 -1.7058,-1.2333 -16.9086,-5.76911 -29.0987,-8.68171 -4.5182,-1.0795 -8.3472,-2.0965 -8.5089,-2.2601 -0.813,-0.8221 -1.7546,-14.7764 -1.6818,-24.9275 0.126,-17.57043 1.6554,-25.62121 6.9809,-36.74801 3.9349,-8.22123 4.1623,-8.84019 6.0175,-16.37924 6.2081,-25.22752 6.6835,-58.11433 1.2273,-84.90283 -1.7824,-8.75096 -5.1204,-21.1594 -7.1224,-26.47652 -0.7899,-2.098 -4.1218,-9.39555 -7.4041,-16.21682 -8.4212,-17.5007 -13.6733,-34.01254 -16.3294,-51.33748 -1.911,-12.46557 -1.9324,-33.15664 -0.043,-41.62056 2.816,-12.61351 7.641,-21.46379 14.5751,-26.73439 4.5407,-3.45126 5.5664,-3.9813 11.1424,-5.75755 5.2004,-1.65655 4.798,-1.72382 28.7532,4.80466 5.0867,1.38626 10.6594,2.90363 12.3838,3.37193 1.7244,0.46831 4.0624,1.24322 5.1958,1.72202 l 2.0604,0.87053 3.473,-4.03106 c 6.0132,-6.97959 11.0138,-13.24985 29.5459,-37.04711 19.5098,-25.05292 39.6086,-52.26845 63.3927,-85.83931 14.6857,-20.72857 15.3595,-21.61124 29.2081,-38.26294 24.8445,-29.87319 45.781,-51.47236 72.5525,-74.84874 5.9046,-5.15568 11.5224,-9.42765 20.2617,-15.40759 7.7393,-5.29564 20.9502,-12.96091 22.3379,-12.96091 0.367,0 1.2303,-0.39898 1.9188,-0.88653 1.756,-1.24369 9.6942,-3.78919 14.4017,-4.61811 4.8916,-0.86131 15.5471,-0.31807 19.1141,0.97443 3.6994,1.3406 8.1158,3.68067 11.973,6.34412 3.7836,2.61258 11.2755,10.25239 14.4917,14.77758 2.6522,3.73194 7.0103,12.06823 8.8313,16.89316 0.7514,1.99098 1.5719,4.16295 1.8233,4.82661 1.6854,4.44803 3.7068,13.21057 5.08,22.02143 0.4914,3.15239 1.2117,7.49634 1.6008,9.65323 0.9597,5.31858 0.8908,41.65509 -0.095,50.07615 -1.8141,15.49874 -5.122,35.85633 -6.6172,40.72457 -0.3057,0.99549 -1.1297,3.98195 -1.8311,6.63659 -2.675,10.12474 -8.1058,27.31817 -10.1002,31.97634 -0.7105,1.65915 -1.9039,4.64562 -2.6522,6.6366 -0.7484,1.99097 -3.3018,8.37116 -5.6742,14.17818 -2.3724,5.80702 -5.1163,12.59444 -6.0978,15.08317 -2.3413,5.93734 -7.2044,20.91638 -9.4999,29.26136 -1.0041,3.65013 -3.3054,11.52355 -5.1142,17.49649 -1.8086,5.97292 -3.6404,12.08162 -4.0703,13.57485 -2.7315,9.48547 -5.8368,20.1684 -6.8396,23.52973 -0.6435,2.15689 -2.018,7.04384 -3.0545,10.85988 -1.0364,3.81605 -2.405,8.83874 -3.0413,11.16155 -0.6362,2.32281 -1.9736,7.61701 -2.972,11.76488 -0.9986,4.14788 -2.0291,8.08458 -2.2902,8.74824 -0.517,1.31474 -2.3669,9.70118 -3.9184,17.7653 -0.8176,4.24965 -0.8708,5.959 -0.3205,10.29746 0.3628,2.86105 0.6597,8.35964 0.6597,12.21901 0,5.83152 -0.255,7.83348 -1.5095,11.84874 -4.2812,13.70342 -16.4535,27.45716 -36.1686,40.86792 -4.8946,3.32933 -7.5913,4.70987 -11.6398,5.95851 -8.6015,2.65283 -15.6389,6.79998 -20.3981,12.02069 -5.6114,6.15543 -6.4955,12.26111 -3.1502,21.75428 2.3962,6.80004 4.6147,13.83712 6.0866,19.30646 1.1809,4.38824 5.0162,23.85282 5.944,30.16632 2.5817,17.56663 4.0286,29.99793 4.4595,38.31133 0.1635,3.1524 0.5995,10.3471 0.9691,15.98831 0.9618,14.6816 0.2708,47.5312 -1.2754,60.6343 -0.3329,2.8206 -1.0143,8.6578 -1.5144,12.9716 -2.2906,19.759 -7.3766,42.6553 -13.1341,59.1261 -5.7065,16.3246 -16.0421,39.8791 -19.7229,44.9478 -0.3614,0.4978 -1.3011,2.1267 -2.0883,3.62 -0.7872,1.4932 -1.6996,3.0449 -2.0278,3.4481 -1.3872,1.7046 -1.9287,2.4876 -4.4515,6.4356 -1.4592,2.2836 -2.9354,4.4556 -3.2802,4.8267 -0.345,0.3709 -1.8245,2.1676 -3.2879,3.9927 -10.3726,12.9358 -22.8523,25.5959 -26.1415,26.5197 -2.873,0.8068 -3.2655,0.7908 -4.5869,-0.186 z m 2.6072,-206.7133 c 11.5402,-3.0016 18.2469,-6.86 26.4826,-15.2361 6.1817,-6.28721 9.8613,-13.26571 12.7133,-24.11131 1.4994,-5.7018 1.3052,-17.6323 -0.3929,-24.1424 -1.4752,-5.6562 -4.9085,-13.54493 -7.6453,-17.56698 -5.7362,-8.43039 -16.7657,-16.19147 -28.1158,-19.78446 -3.8525,-1.2195 -5.7204,-1.41806 -13.4253,-1.42729 -10.2345,-0.012 -14.1667,0.79084 -22.1804,4.53027 -11.4328,5.33479 -18.2051,12.09863 -24.5314,24.50119 -1.3773,2.69994 -2.9112,6.51587 -3.4089,8.47977 -2.2275,8.7918 -2.0717,21.4361 0.3591,29.1457 1.2092,3.8352 5.4465,12.68 6.744,14.0777 0.3595,0.3871 1.4164,1.73641 2.3488,2.99831 9.4316,12.7646 24.1425,19.7125 41.4984,19.5995 3.2127,-0.021 7.2885,-0.4747 9.5538,-1.0639 z m -21.0954,-11.1994 c -4.0492,-1.1232 -10.698,-4.5728 -14.6468,-7.5991 -16.1501,-12.37741 -20.2896,-36.50601 -9.255,-53.94808 4.7722,-7.54341 13.5882,-14.23119 22.3723,-16.97179 3.6424,-1.13643 5.8294,-1.39785 11.6448,-1.39212 8.1663,0.008 11.7394,0.77998 17.9355,3.87447 7.7767,3.8839 13.7992,10.03 18.1892,18.56191 5.4191,10.5324 5.4715,25.0482 0.1292,35.7775 -5.2262,10.496 -13.9161,17.79531 -25.4274,21.35861 -4.8557,1.5031 -16.0891,1.6847 -20.9418,0.3386 z m 0.8671,-51.10951 c 2.2981,-1.5862 4.1764,-4.8487 4.1764,-7.2545 0,-0.93092 -0.5286,-2.74043 -1.1748,-4.02107 -4.2116,-8.34756 -16.3131,-5.40427 -16.3246,3.97047 -0.011,6.8294 7.8051,11.1136 13.323,7.3051 z m 57.4762,-148.63004 c 3.6468,-1.82916 4.4917,-2.43503 7.9901,-5.72985 9.3722,-8.82698 20.8326,-29.05309 35.4369,-62.54153 7.5177,-17.23834 13.5108,-35.82201 19.6011,-60.77973 6.4106,-26.26982 8.5746,-33.07354 14.5894,-45.87155 5.0196,-10.68051 16.7558,-30.42898 22.2189,-37.38757 0.7817,-0.99549 1.6185,-2.08171 1.8597,-2.41385 2.9648,-4.08289 4.0083,-5.47731 4.289,-5.73106 0.3136,-0.28345 1.5046,-1.90917 6.188,-8.44658 11.784,-16.44929 19.9458,-34.46536 21.7682,-48.05071 1.5434,-11.5046 0.6367,-21.15047 -2.955,-31.44004 -1.7735,-5.08086 -2.1351,-5.82542 -5.1987,-10.70663 -1.5055,-2.39865 -8.212,-10.70459 -11.4211,-14.14494 -0.4923,-0.52774 -1.8349,-2.17416 -2.9834,-3.65876 -2.7747,-3.58624 -4.553,-5.1436 -7.6393,-6.68994 -4.5387,-2.27399 -12.9175,-1.58053 -20.7029,1.71346 -12.6247,5.3415 -34.7571,25.54722 -52.7272,48.13734 -0.5356,0.6732 -1.9386,2.43793 -3.1178,3.92163 -4.7915,6.02826 -21.076,28.14859 -25.1898,34.21703 -13.8347,20.40789 -22.1786,33.18545 -25.1191,38.46644 -0.3695,0.66366 -1.0946,1.8854 -1.6112,2.71497 -0.5166,0.82958 -2.8298,4.76628 -5.1404,8.74824 -15.7844,27.20214 -24.5701,46.03541 -33.0705,70.89092 -7.2799,21.28743 -10.3148,43.84111 -8.5413,63.47631 1.1532,12.76767 7.1721,28.76986 14.466,38.46037 12.1009,16.07663 32.9742,32.48772 43.688,34.34844 4.6104,0.80067 9.9261,0.20127 13.3224,-1.50241 z M 885.27798,1199.987 c -3.86133,-2.8443 -4.82715,-6.9172 -2.5398,-10.7105 5.48483,-9.0957 18.38081,-2.0556 14.04472,7.6672 -1.28193,2.8745 -3.02861,4.1239 -6.40642,4.5826 -2.19397,0.298 -2.88911,0.088 -5.0985,-1.5393 z m 97.84862,-0.016 c -2.9661,-2.1727 -3.7013,-3.4577 -3.6984,-6.4651 0.011,-4.252 4.041,-8.6296 7.9628,-8.6348 2.821,0 5.7156,1.7708 6.9816,4.2801 2.2955,4.5495 1.1053,8.9912 -3.0405,11.3473 -3.063,1.7406 -5.3058,1.5964 -8.2055,-0.5275 z m 238.8483,-16.8844 c -2.4179,-1.0113 -4.0392,-3.4967 -4.339,-6.6514 -0.246,-2.59 -0.052,-3.3884 1.3008,-5.3627 0.8744,-1.2759 2.264,-2.6304 3.088,-3.01 6.969,-3.2106 14.4042,5.1139 10.4077,11.6527 -0.7283,1.1913 -2.0904,2.5669 -3.0269,3.0566 -1.84,0.9621 -5.511,1.1176 -7.4306,0.3148 z m -71.6009,-8.3549 c -2.8701,-1.8492 -3.9994,-3.5095 -4.3155,-6.3445 -0.8801,-7.8955 8.2082,-12.5369 13.3784,-6.8324 3.3532,3.6998 3.3521,7.9364 0,11.6381 -2.4565,2.7103 -6.2435,3.3536 -9.0601,1.5388 z m -202.5719,-20.4553 c -2.7504,-1.0166 -5.37143,-4.9918 -5.36783,-8.1414 0,-4.4707 3.81994,-8.0461 8.49313,-7.9596 2.4404,0.045 3.2206,0.3721 4.9628,2.0795 3.4565,3.3876 3.8476,7.4906 1.0728,11.2549 -1.8468,2.5055 -6.2609,3.8385 -9.1609,2.7666 z m 242.5194,-41.4733 c -2.4118,-1.0297 -4.9041,-4.1045 -5.3723,-6.6275 -0.4669,-2.5166 0.9533,-5.7835 3.4307,-7.8912 2.0697,-1.7611 6.0741,-2.039 8.805,-0.611 3.8501,2.0132 5.3531,7.7562 3.0356,11.5994 -1.9564,3.2443 -6.649,4.9179 -9.899,3.5303 z m -194.9603,-80.6743 c -0.5886,-1.0454 -0.8571,-2.1048 -0.5967,-2.3543 1.0654,-1.0212 12.842,-6.7389 18.9705,-9.2106 7.4334,-2.998 19.3476,-6.4373 27.7454,-8.0093 7.1441,-1.3373 28.2763,-1.5237 35.5023,-0.3131 6.8388,1.1458 14.6463,3.2829 21.182,5.7981 6.2482,2.4046 20.3438,9.3286 22.6455,11.124 1.3032,1.0166 1.3855,1.3148 0.7511,2.7227 -0.3919,0.8698 -1.0718,1.7207 -1.511,1.891 -0.4391,0.1705 -2.5223,-0.7467 -4.6294,-2.0381 -7.1656,-4.3916 -14.8158,-8.0351 -21.257,-10.1238 -28.8992,-9.3712 -60.1187,-6.4569 -89.0755,8.3151 -4.4276,2.2587 -8.1865,4.1049 -8.3535,4.1028 -0.1669,0 -0.7851,-0.8592 -1.3737,-1.9045 z"
       id="dog"
       inkscape:label="dog"
       sodipodi:nodetypes="ssscssssssssssssscssssssssssssscsssssssssssssssssssssssssssssssssscssscsscsscccssscsssssscsssscsssssssssssssssscssssssssssssssssccsssssssssssssssccssssssssssscssssscssscssccscsssssscsssscssssscscsscsssscssssscsssssssssssssssssssssssssssssssssssssssssssssssssssssssssssscsssssscssssscsssssssssssssssssssssssssssssssssssssssssssccsssssssssscsscccscsssssssssssssssssssssscs"
       transform="translate(-231.22665,-46.187395)" />
  </g>
</svg>
